<svg fill="none" height="13" viewBox="0 0 11 13" width="11" xmlns="http://www.w3.org/2000/svg">
<path d="M0 5.92358C0 4.81901 0.89543 3.92358 2 3.92358H8.24826C9.35283 3.92358 10.2483 4.81901 10.2483 5.92358V9.82567C10.2483 11.4825 8.90511 12.8257 7.24826 12.8257H3C1.34315 12.8257 0 11.4825 0 9.82567V5.92358Z" fill="#DADADA"/>
<path d="M4.26053 1.02271H5.88624C6.82762 1.02271 7.85142 1.5749 7.85142 3.60704V5.66226C7.85142 5.94467 8.08036 6.17361 8.36277 6.17361C8.62984 6.17361 8.87413 5.9742 8.87413 5.70713V3.60704C8.87413 1.16848 7.39244 0 5.88624 0H4.26053C2.75433 0 1.37427 1.02271 1.37427 3.60704V5.4354C1.37427 5.70247 1.61855 5.90188 1.88562 5.90188C2.16803 5.90188 2.39698 5.67294 2.39698 5.39052V3.60704C2.39698 1.5749 3.31916 1.02271 4.26053 1.02271Z" fill="#DADADA"/>
<rect fill="#202020" height="2.9924" rx="1.11845" width="2.2369" x="4.04761" y="6.75684"/>
</svg>
