<svg id="Layer_1" data-name="Layer 1" xmlns="http://www.w3.org/2000/svg" viewBox="0 0 123.24 82.99"><defs><style>.cls-1{fill:#fff;}</style></defs><title>Brush_17</title><path class="cls-1" d="M91.63,77.36,89,79.5c-1.12.9-2.19,1.86-3.38,2.67A26,26,0,0,1,82,84.27a26.34,26.34,0,0,1-6.38,2.37.83.83,0,0,0-.27.07,20.1,20.1,0,0,1-4.89,1.08c-1.69.26-3.41.36-5.12.52a4.17,4.17,0,0,1-.7,0,3.54,3.54,0,0,0-1.65,0,1.7,1.7,0,0,1-.55,0l-2.5-.11a1.31,1.31,0,0,1-.28,0c-1.18-.45-2.46-.43-3.66-.8-2.3-.72-4.52-1.65-6.8-2.42a30.47,30.47,0,0,1-6.26-3,16.08,16.08,0,0,0-2.23-1.13,20.87,20.87,0,0,1-4.73-2.91A14.77,14.77,0,0,1,34.09,76c-.83-.95-1.67-1.87-2.5-2.82a4.33,4.33,0,0,1-.95-1.36,2,2,0,0,0-.41-.56,20.72,20.72,0,0,1-1.73-2.16,39.34,39.34,0,0,1-2.25-3.65,1.56,1.56,0,0,1-.15-.39,13.38,13.38,0,0,0-.74-2.38A11.34,11.34,0,0,0,24.73,61a.54.54,0,0,1-.09-.26A7.14,7.14,0,0,0,24,58.46c-.08-.31-.13-.63-.18-1a3.7,3.7,0,0,0-.14-.82,12.43,12.43,0,0,1-.62-3.41,2.61,2.61,0,0,0-.08-.69,9.84,9.84,0,0,1-.41-3,7.37,7.37,0,0,0-.15-1.24,32.92,32.92,0,0,1-.39-4.85c.42-1.34.2-2.75.51-4.12a25.52,25.52,0,0,0,.33-3.66c-.79-.85-1.47-1.68-2.24-2.41s-1.87-1.69-2.86-2.47a24.5,24.5,0,0,1-3.7-3.57c-.3-.35-.72-.61-1-1-.54-.7-1.16-1.32-1.64-2.07a6,6,0,0,0-1.35-1.59,6.27,6.27,0,0,1-1-1.17c-.2-.25-.41-.5-.63-.74s-.23-.17-.3-.28c-.62-.92-1.27-1.83-1.82-2.79S5.49,15.82,5,14.91a10.11,10.11,0,0,1-1-2.59,9.44,9.44,0,0,1-.37-1.89,4.27,4.27,0,0,1,.83-2.71A3.42,3.42,0,0,1,7.21,6.26,4.68,4.68,0,0,0,9.53,6c.89,0,1.77,0,2.65,0a29,29,0,0,1,3.59.41,11.51,11.51,0,0,0,1.65.24A24.94,24.94,0,0,1,22,7.44c.58.15,1.15.37,1.74.51a26.41,26.41,0,0,0,3.1.74,8,8,0,0,1,2.4.67,19.49,19.49,0,0,0,2.4.71c.49.14,1,.29,1.45.47,1.56.6,3.12,1.23,4.68,1.84.21.08.44.13.64.19a24.44,24.44,0,0,0,3.08-2c.26-.23.69-.27,1-.45,1.13-.64,2.27-1.26,3.36-2a10.71,10.71,0,0,1,4.1-1.65,4.15,4.15,0,0,1,1.64-.21.41.41,0,0,0,.27-.05,8.26,8.26,0,0,1,3-.48c.83-.09,1.66-.18,2.5-.23s1.48,0,2.21-.07c1.67-.14,3.34-.17,5-.16,1.25,0,2.5.16,3.75.27a24.77,24.77,0,0,1,4.51.79,16.59,16.59,0,0,1,3.71.52,14.77,14.77,0,0,1,1.6.49,4.61,4.61,0,0,0,.51.22A32.42,32.42,0,0,1,82.18,8.8a9.1,9.1,0,0,1,1,.42c.64.29,1.28.55,1.9.88a17.19,17.19,0,0,1,2.28,1.33,13.4,13.4,0,0,1,2.54,2.16c.37.46,1,.74,1.35,1.18,1,1.15,2.29,2,3.34,3.15s1.91,2.16,2.89,3.21c1.17,1.26,2.11,2.69,3.15,4.05A22.28,22.28,0,0,1,103.58,31a33.79,33.79,0,0,1,1.66,5,33.37,33.37,0,0,1,.84,5.64,8.47,8.47,0,0,1-.18,2.46,3.12,3.12,0,0,0,0,1.1,12.94,12.94,0,0,1,0,2.49c-.07.69,0,1.39-.1,2.09s-.19,1.37-.3,2.08a26,26,0,0,1,5,4,3.75,3.75,0,0,0,.44.35,20.25,20.25,0,0,1,3.31,3,2,2,0,0,0,.3.29,25.63,25.63,0,0,1,3.66,3.63c1,1,1.83,2.21,2.82,3.26a7.49,7.49,0,0,1,.73,1.18q1.28,1.9,2.58,3.8a14.92,14.92,0,0,1,1.86,3.42,17.57,17.57,0,0,1,.55,2.84,7.58,7.58,0,0,0,.08.82,10.58,10.58,0,0,1-.27,2.85,2.32,2.32,0,0,1-1.17,1.16,11.24,11.24,0,0,1-3.43,1.07c-1.38.12-2.76.16-4.15.19a30.32,30.32,0,0,1-7-.9,18.39,18.39,0,0,0-3.31-.42,1.88,1.88,0,0,1-.82-.12,37.43,37.43,0,0,0-4-1.25l-2.6-1a5.94,5.94,0,0,0-.78-.26l-2.72-.61a.58.58,0,0,1-.14,0c-1.17-.92-2.79-.67-4-1.56A2.85,2.85,0,0,0,91.63,77.36Zm2.69-57.68c-.64-.66-1.27-1.26-1.86-1.91a37,37,0,0,0-5.87-5.1,11.38,11.38,0,0,0-1.74-1.11c-1-.49-2.06-.86-3-1.36a25.12,25.12,0,0,0-4.86-1.66c-1.61-.45-3.28-.66-4.9-1-.64-.15-1.3,0-1.92-.17a34.54,34.54,0,0,0-5-.57c-.23,0-.46,0-.7,0a16,16,0,0,1-3.73,0,1.5,1.5,0,0,0-.7,0,4,4,0,0,1-2.3.24c-1.55.29-3.14.27-4.68.61-.59.12-1.17.33-1.76.39a13.93,13.93,0,0,0-3,.73,20.2,20.2,0,0,0-5.06,2.65A19.89,19.89,0,0,1,41,12.8c-.2.1-.39.24-.58.36a8.54,8.54,0,0,1-2.17,1.44,7.3,7.3,0,0,1-1.43,1.09c-.28.22-.43.61-.71.83A17.87,17.87,0,0,0,32.81,20c-1.23,1.65-2.25,3.42-3.38,5.13-.41.62-.79,1.26-1.18,1.89-.17.28-.32.57-.47.86a.6.6,0,0,0,.16.76c.61.5,1.22,1,1.85,1.48.92.71,1.87,1.39,2.8,2.09a15.74,15.74,0,0,1,1.63,1.3,7.6,7.6,0,0,0,1.54,1.18,16.27,16.27,0,0,1,2.69,2,31.09,31.09,0,0,0,2.68,2s.06.06.1.09c.26.2.51.41.78.59l6.25,4q6,3.84,12,7.66c.82.52,1.72.94,2.56,1.42,1.33.77,2.64,1.58,4,2.33a24,24,0,0,1,2.7,1.45c.9.69,1.93,1.12,2.86,1.74a32.6,32.6,0,0,0,5,2.49,16.93,16.93,0,0,1,2,.91c.94.6,2,1.06,2.9,1.63a10.48,10.48,0,0,0,1.46.82c2,.84,3.92,1.87,5.88,2.81,1.67.81,3.37,1.54,5.07,2.28.55.23,1.12.42,1.66.62a2.64,2.64,0,0,0,1.07-1.13c.85-2,2.13-3.72,2.7-5.81a.34.34,0,0,1,.05-.14,42.29,42.29,0,0,0,1.95-4.6,17.15,17.15,0,0,0,1.21-3.69c.14-.73.33-1.44.54-2.16a5.25,5.25,0,0,0,.29-2.2,3.92,3.92,0,0,1,.07-1c0-.46.13-.92.14-1.38a11.87,11.87,0,0,1,.21-3,1.18,1.18,0,0,0,0-.42c-.12-1.2-.18-2.4-.25-3.61a32.26,32.26,0,0,0-.6-4.14,24.71,24.71,0,0,0-.72-2.55c-.14-.45-.43-.5-.87-.2s-1.07.74-1.63,1.08a2,2,0,0,1-.76.31c-.83.13-1.66.25-2.49.3a4.31,4.31,0,0,1-2.9-.78c-.34-.25-.71-.45-1.06-.68a11.91,11.91,0,0,1-4.36-5,5.61,5.61,0,0,1-.09-4.88,6.8,6.8,0,0,1,3.71-3.57C93.16,20.11,93.71,19.91,94.32,19.68Zm-4.12,57a16.6,16.6,0,0,1-4.79-2.16c-.16-.1-.34-.16-.5-.24-.92-.45-1.83-.91-2.76-1.34a1.54,1.54,0,0,0-.65-.2,3.36,3.36,0,0,1-2-.82,3.44,3.44,0,0,0-.68-.47A20.12,20.12,0,0,0,75.63,70a1,1,0,0,1-.36-.21,7.33,7.33,0,0,0-2.16-.95A16.06,16.06,0,0,0,70.9,67.7a2.12,2.12,0,0,1-.65-.24A8.47,8.47,0,0,0,67.61,66s-.07-.06-.11-.08c-1.36-.79-2.58-1.81-4-2.58-.63-.36-1.1-1-1.92-1A1.35,1.35,0,0,1,61,62c-1.82-1.12-3.68-2.15-5.41-3.41S52,56.51,50.3,55.23a4.74,4.74,0,0,0-.87-.44,6.14,6.14,0,0,1-.63-.31,42.39,42.39,0,0,0-3.94-2.37,2.53,2.53,0,0,1-.81-.53c-.67-.76-1.67-1-2.41-1.64-.61,0-.85-.66-1.38-.88a14.79,14.79,0,0,1-3-1.94C36.48,46.59,35.73,46,35,45.5a4.63,4.63,0,0,1-.54-.43c-.6-.58-1.17-1.19-1.79-1.75a6.74,6.74,0,0,0-1.51-1.22A18.69,18.69,0,0,1,28,39.77c-1-.78-1.88-1.65-2.82-2.48-.24-.21-.47-.47-.87-.39a1.27,1.27,0,0,0-.11.38c-.05,1.39-.27,2.76-.41,4.15A15,15,0,0,0,24,45.51a1.62,1.62,0,0,0,1.18.54,8.71,8.71,0,0,1,2.7.63,2.15,2.15,0,0,1,1.58,1.93,26.93,26.93,0,0,1,0,3.48A5.34,5.34,0,0,1,28.26,55a2.16,2.16,0,0,1-2.32.88,5.27,5.27,0,0,0-.87-.07,33.67,33.67,0,0,0,1,3.73c.51,1.35.95,2.72,1.35,4.11a7.15,7.15,0,0,0,.63,1.38c.22.41.49.79.74,1.18.51.83,1,1.66,1.53,2.49,1,1.65,2.41,3.06,3.45,4.72a16.89,16.89,0,0,0,3.4,3.46,13.22,13.22,0,0,0,1.7,1.18c1,.63,2,1.24,3,1.85a.38.38,0,0,0,.51,0,.63.63,0,0,0,0-.27c-.54-1.22-.18-2.48-.16-3.72a2.82,2.82,0,0,1,.35-1.06c.25-.5.54-1,.82-1.46A7.62,7.62,0,0,1,46,71c1.25-.79,2.61-1.42,3.88-2.18a6.22,6.22,0,0,1,2.23-.76,14.06,14.06,0,0,1,5.13.17,31.62,31.62,0,0,1,5,1.54l2.61,1a17.5,17.5,0,0,1,3.82,2,6.92,6.92,0,0,1,2.51,3.44,25.8,25.8,0,0,0,1.28,3.07,7.62,7.62,0,0,1,.45,1.15A16.67,16.67,0,0,1,73.4,83a4.82,4.82,0,0,1-.24,2.47c0,.06,0,.17.09.34a17.07,17.07,0,0,0,6.51-2.18,1.93,1.93,0,0,1,.35-2.11,2.43,2.43,0,0,1,3-.54c.28.22.52.57,1,.52A45.44,45.44,0,0,0,90.2,76.72Zm14.57-21c.9.7,1.71,1.31,2.5,1.95s1.67,1.34,2.46,2.06c1.33,1.23,2.63,2.5,4,3.73a12.22,12.22,0,0,1,1.93,2.19,16.87,16.87,0,0,0,1.16,1.4c.83,1,1.71,2,2.49,3a9,9,0,0,1,1.62,4.94,1.16,1.16,0,0,1-1,1.33,8.14,8.14,0,0,1-2,.38,23.78,23.78,0,0,1-6-.61c-1.45-.32-2.88-.77-4.32-1.15a13.82,13.82,0,0,0-2.17-.48,10,10,0,0,1-2.23-.79,25.81,25.81,0,0,1-4-1.58,26.89,26.89,0,0,0-4.54-1.74,18,18,0,0,1-1.83-.65c-.52-.21-1-.49-1.52-.71a44.43,44.43,0,0,1-5.54-2.62,13.09,13.09,0,0,0-3.66-1.68A4.1,4.1,0,0,1,81,64c-.2-.12-.36-.3-.57-.4-1.64-.77-3.17-1.76-4.86-2.43a8.59,8.59,0,0,1-1-.54l-1-.53c-.45-.24-.9-.48-1.34-.73a6,6,0,0,0-.82-.53,15.54,15.54,0,0,1-2.76-1.61,20.59,20.59,0,0,0-3.73-2.14,1.88,1.88,0,0,1-.38-.18c-1.49-.94-3-1.89-4.48-2.82-1.78-1.1-3.56-2.2-5.36-3.28-1.55-.94-3.17-1.79-4.69-2.77-1.94-1.26-4-2.39-5.87-3.72a37.15,37.15,0,0,1-4.47-3.31,10.23,10.23,0,0,0-1.78-1.36,28,28,0,0,1-2.84-2c-1.09-.86-2.21-1.7-3.33-2.54-.63-.47-1.31-.89-1.9-1.41a49.69,49.69,0,0,0-4.61-3.82,36.38,36.38,0,0,1-5-4.48c-.62-.62-1.21-1.28-1.84-1.89s-1.29-1.22-1.89-1.87a32.75,32.75,0,0,1-3.2-4.38A7.83,7.83,0,0,1,12,12.1a1.92,1.92,0,0,1,1.43-2.22,3.39,3.39,0,0,1,1.1-.08c.42,0,.83.17,1.24.15a13.41,13.41,0,0,1,4,.5c1.27.3,2.55.56,3.8.88a31.81,31.81,0,0,1,4,1.11,24.48,24.48,0,0,0,3.83,1.25c.32.08.62.21.93.32l2.71,1.05a3.94,3.94,0,0,0,1.58-1.2,8.89,8.89,0,0,0-1.23-.72c-2-.78-4.1-1.54-6.15-2.29A32.9,32.9,0,0,0,24,9.46c-1.59-.29-3.16-.79-4.76-1a47.65,47.65,0,0,0-6.07-.62,23.31,23.31,0,0,1-2.51-.13,2.89,2.89,0,0,0-1.37.13A1.81,1.81,0,0,1,8.64,8,2.87,2.87,0,0,0,6.4,9.23a2.2,2.2,0,0,0-.55,2.19c.13.49.27,1,.37,1.48a8.32,8.32,0,0,0,1.54,3.55c1,1.24,1.64,2.72,2.87,3.75a27.17,27.17,0,0,0,2.45,3c.4.5.91.93,1.28,1.46A3,3,0,0,0,15.57,26c.15.06.26.26.35.42a4.08,4.08,0,0,0,.82.94A46.55,46.55,0,0,1,20.41,31a2.72,2.72,0,0,0,.3.29c1,.92,2.18,1.59,2.81,2.85a1.23,1.23,0,0,0,.41.37c.35.23.71.44,1.07.66a8.26,8.26,0,0,1,2.25,1.63,6.53,6.53,0,0,0,1.8,1.51A9.84,9.84,0,0,1,32,40.62a2.52,2.52,0,0,0,.85.7,8.25,8.25,0,0,1,2.28,1.83,4.92,4.92,0,0,0,1.08.86c1.38.87,2.77,1.72,4.13,2.62,2,1.31,3.93,2.68,5.92,4,2.72,1.79,5.5,3.5,8.2,5.33,1.89,1.27,3.92,2.31,5.88,3.46.93.54,1.84,1.09,2.77,1.62.77.44,1.53.89,2.32,1.27a5.29,5.29,0,0,1,2.14,1.23c.13.16.41.2.62.29a4.38,4.38,0,0,1,.76.34c1.07.84,2.35,1.31,3.47,2a3,3,0,0,0,.62.31c1,.4,2,.77,3,1.18.6.26,1.23.44,1.81.7s1.18.69,1.82,1a28.83,28.83,0,0,1,2.51,1.47,5.06,5.06,0,0,0,.88.42c.35.12.72.16,1.06.3a8.41,8.41,0,0,1,1,.52,5.24,5.24,0,0,0,1.79.75,1.1,1.1,0,0,1,.61.3,2,2,0,0,0,1.13.51,3.18,3.18,0,0,1,.64.26l3.61,1.79a9,9,0,0,0,2.87,1.06,13,13,0,0,1,3.86,1.13,3.33,3.33,0,0,0,.9.38,10.41,10.41,0,0,1,3,1.07c1.21.48,2.45.85,3.67,1.3.65.24,1.33.4,2,.58s1.26.28,1.89.45a17,17,0,0,0,4.63.86c.65,0,1.3.07,1.94,0a15.48,15.48,0,0,0,3.71-.49,8,8,0,0,1,1.42-.54c.89-.12,1.2-.7,1.49-1.42a6.32,6.32,0,0,0,.33-2.58,9.51,9.51,0,0,0-.58-3.8c-.21-.46-.32-1-.54-1.42a9.62,9.62,0,0,0-.7-1.2c-.2-.31-.44-.59-.64-.91-.72-1.13-1.5-2.22-2.25-3.34a26.3,26.3,0,0,0-2.55-2.95,58.13,58.13,0,0,0-6.85-6.55C109,56.2,107.64,55,106.25,53.8c-.23-.19-.44-.5-.87-.4A4.19,4.19,0,0,0,104.77,55.67ZM71.49,86.15c.1-.24.21-.49.3-.75A5.74,5.74,0,0,0,72,82.27a22.78,22.78,0,0,0-1.61-4.14c-.32-.82-.74-1.6-1.08-2.42a4.74,4.74,0,0,0-.67-1,7,7,0,0,0-2.72-1.89c-1.47-.71-3-1.3-4.49-1.91a8.08,8.08,0,0,0-2.64-.8,2.93,2.93,0,0,1-.52-.18,13.58,13.58,0,0,0-4.66-.6,11.93,11.93,0,0,0-3.26.77,15.2,15.2,0,0,0-4.1,2.31,7.83,7.83,0,0,0-2.22,2.82,3.79,3.79,0,0,0-.48,2.13,25.33,25.33,0,0,0,.54,2.73,1.37,1.37,0,0,0,.62.9,12.66,12.66,0,0,0,3.57,1.86,10,10,0,0,1,1.66.71c.59.25,1.19.52,1.79.75,1.12.43,2.23.89,3.37,1.26a21.06,21.06,0,0,0,3.23.86,12.34,12.34,0,0,0,3.59.33,4,4,0,0,1,.83.11,3.2,3.2,0,0,0,.69,0,34.88,34.88,0,0,1,5.41-.22l.28,0Zm26.6-15.88c.29.15.52.29.76.4.43.18.86.33,1.29.51,1.5.61,3,1.34,4.5,1.87.92.32,1.86.58,2.76.94a20.58,20.58,0,0,0,5.93,1.49,13.46,13.46,0,0,0,4.43-.18,1,1,0,0,0,.81-.67,3,3,0,0,0,.2-1.23,9.31,9.31,0,0,0-1.18-3.82,14.17,14.17,0,0,0-1.54-2.14c-.89-1-1.69-2-2.56-2.94a54.37,54.37,0,0,0-4.83-4.65c-1.2-1-2.46-2-3.71-3a2,2,0,0,0-.64-.24,14.17,14.17,0,0,0-.7,1.75,9.39,9.39,0,0,1-.69,1.81c-.19.38-.33.77-.48,1.16s-.39,1-.57,1.57c-.31.92-.88,1.72-1.18,2.66a16.33,16.33,0,0,1-1.51,2.82C98.84,69,98.48,69.61,98.09,70.27ZM34.48,16.05a8.05,8.05,0,0,0-1-.58c-1.26-.47-2.52-1-3.8-1.36s-2.67-.78-4-1.17a61.53,61.53,0,0,0-7.48-1.63,13.83,13.83,0,0,0-2.49-.16,2.23,2.23,0,0,0-1.6.7,1,1,0,0,0-.3,1.13,14,14,0,0,0,1.38,3,31,31,0,0,0,3,3.5c.87,1,1.82,1.85,2.74,2.77S22.8,24.17,23.82,25c.71.6,1.39,1.23,2.09,1.83a.63.63,0,0,0,.76.13,28.08,28.08,0,0,0,1.65-2.41c.28-.43.48-.9.76-1.33a16,16,0,0,0,2-3.49,2,2,0,0,1,.27-.49A12.84,12.84,0,0,1,34.48,16.05Zm61.19,5.06a7.28,7.28,0,0,0-.78,0,4.38,4.38,0,0,0-2.69,1,15.31,15.31,0,0,0-2,2.33,3.24,3.24,0,0,0-.56,2.38A6.25,6.25,0,0,0,91.19,30a26.57,26.57,0,0,0,3.18,2.9,10.69,10.69,0,0,0,2,1,.66.66,0,0,0,.28,0c.87-.07,1.75-.1,2.61-.22a5.53,5.53,0,0,0,2.49-1.48.75.75,0,0,0,.18-.89L100.21,27a1.65,1.65,0,0,0-.22-.36A37.52,37.52,0,0,0,95.67,21.11ZM24,47.35a2.21,2.21,0,0,0-.08.57,19.92,19.92,0,0,1,.32,2.77,21.41,21.41,0,0,0,.41,2.86.61.61,0,0,0,.51.59,11,11,0,0,0,1.52.15.85.85,0,0,0,.61-.28,4.09,4.09,0,0,0,1-2.68c0-.74-.12-1.48-.1-2.23a1.13,1.13,0,0,0-.76-1.18,3.6,3.6,0,0,0-.77-.32A19.19,19.19,0,0,0,24,47.35Zm58.71,34.8c-.11-.19-.16-.38-.24-.39a1.81,1.81,0,0,0-1.65.47.74.74,0,0,0-.07,1l.88-.49Z" transform="translate(-3.7 -5.33)"/></svg>