<svg id="Layer_1" data-name="Layer 1" xmlns="http://www.w3.org/2000/svg" viewBox="0 0 153.9 52.3"><defs><style>.cls-1{fill:#fff;}</style></defs><title>Brush_18</title><path class="cls-1" d="M88,14.57a.76.76,0,0,1,0,.11S88,14.6,88,14.57Zm12.37,38.84c-8-1.15-15.26-7.53-14.74-16,.46-7.49,6-13.57,13-15.89,9.26-1.1,16.83,3.44,18.76,12.87,1.47,7.19-1,14.91-8,18,0,0-.26.11-.1,0a17.62,17.62,0,0,1-8.84,1C98.7,53.18,101.22,53.52,100.33,53.41ZM59,20.24l2.44,2a19,19,0,0,1,3.31,4.35c3,6.33,2.39,15.79-3.41,20.41A14.58,14.58,0,0,1,50.8,49.88c-2.93-.44-4.9-2-7.4-3.21h0a19.71,19.71,0,0,1-6.45-9l-.81-3.13A13.32,13.32,0,0,1,42.23,20.8a22.1,22.1,0,0,1,4.6-2.68c.57-.14-.07,0,0,0A15.57,15.57,0,0,1,59,20.24m73.35,1.65-.16.12Zm-94.64.16v0Zm50.76,3.23,0,0Zm-52.78.22a.14.14,0,0,1,0,.06A.14.14,0,0,0,35.66,25.5Zm52,.59Zm2,1.28Zm-7.43.7h0Zm-7.88,1.21.69.09a1.35,1.35,0,0,1-.69-.09C74.51,29.31,74.5,29.32,74.29,29.28Zm-38.23.09,0,.22Zm41.71.22ZM69.28,31.3l-.47.24c0-.17.12-.25.47-.24Zm2.39.16-.06,0Zm11.21,1.6h0C82.92,32.93,82.89,33.07,82.88,33.06Zm33.9,11.51,0,.06ZM63.29,45l0,.07A.18.18,0,0,1,63.29,45Zm24.77,1.24,0,.07A.18.18,0,0,1,88.06,46.25ZM50.85,49.88l.14,0Zm3.54,0h0Zm57.75.83-.09.08ZM34.58,26.9c-.14.45-.26.92-.36,1.4C32,38.87,35.72,50.12,47.9,51.79c5.29.72,10.73,1,15.12-2.6s6.46-9.51,6.13-15c-.24-4.09,7.92-4.35,10.63-2.28,1.77,1.41,2.93,2.05,2.94,4.24a21.12,21.12,0,0,0,1.46,8.58c4.47,10.18,18.29,15.56,27.9,9.15a17.29,17.29,0,0,0,7.13-11.43,29.7,29.7,0,0,0,.44-7.93c-.23-2.63,3.67-5,5.57-6.67a97,97,0,0,1,12.39-9.72C141,15.92,149,10.26,152.54,14.5c1.68,2.41,1.59,5.65,1.35,8.45-.1,1.11-.8,3.08-.4,4,.71,1.71,2.21.3,2.64-.66,2.11-4.6,3.33-12.29-1.82-15.51-4.93-3.12-13.37,2.23-17.47,4.8a112.23,112.23,0,0,0-18,14.72A17,17,0,0,0,99.1,18.85a19.3,19.3,0,0,0-12,5.55c-1.86,1.93-2,3.26-4.87,3.67A20.62,20.62,0,0,1,75.55,28a25.18,25.18,0,0,1-7.8-2.55C65.39,24.1,64.53,22,62.47,20a16,16,0,0,0-5.78-3.65c-7.73-2.66-16.88.73-20.82,7.62m-11.5-8.89c-2.95-2.82-9.68-9.85-14-6.35-2.1,2.06-2.61,5.26-2.9,8.06-.11,1.11.21,3.17-.35,4-1,1.55-2.23-.12-2.48-1.14C3.43,14.75,3.66,7,9.32,4.76c5.42-2.15,12.73,4.67,16.27,8,5.67,5.26,5.79,5,10.23,11.32,0,0-.82,1.87-1.24,2.85C34.58,26.9,28.24,18.73,24.37,15.05Zm-.23,1.82a1.07,1.07,0,0,1-.14-.16Z" transform="translate(-4.05 -4.35)"/></svg>