<svg id="Layer_1" data-name="Layer 1" xmlns="http://www.w3.org/2000/svg" viewBox="0 0 114.23 151.01"><defs><style>.cls-1{fill:#fff;}</style></defs><title>Brush_20</title><path class="cls-1" d="M116.22,5.72a.61.61,0,0,0-1-.42A15.43,15.43,0,0,0,111.83,9L111.4,9a.66.66,0,0,0-.88.14l-.06.09-.22.06a.54.54,0,0,0-.91-.15c-.15.18-.29.36-.44.53-.78.22-1.56.43-2.34.67a137.1,137.1,0,0,0-16,5.94c-2.14.95-4.26,2-6.35,3a.54.54,0,0,0,0-.77,14.67,14.67,0,0,0-6.7-3.35,53.78,53.78,0,0,0-8.7-1.81,20,20,0,0,0-8.24.79,26.9,26.9,0,0,0-6.78,3.39C49.16,20.7,45.13,24.69,41,28.42l-6.92,6.24-1.78,1.6a4.14,4.14,0,0,0-1.12,1.41,1.58,1.58,0,0,0,1.42,2.23c.65.08,1.3,0,1.95.08a15.53,15.53,0,0,1,2,.3,17.07,17.07,0,0,1,3.86,1.31,16.69,16.69,0,0,1,6.32,5.29,135.64,135.64,0,0,0-10,11.52c-.72.94-1.43,1.89-2.13,2.84a.66.66,0,0,0-.5.91,27.12,27.12,0,0,0,6.84,8.94.64.64,0,0,0-.25.12,49.67,49.67,0,0,1-10.84,6.66.72.72,0,0,0-.19.14.6.6,0,0,0-.3.65,20.61,20.61,0,0,0,4.29,8.73,36.58,36.58,0,0,0,6.54,6.5,37.6,37.6,0,0,0,16.59,7.33c2.25.38,6.12.4,6.62-2.56a.6.6,0,0,0-.28-.63,57,57,0,0,0,2.83-9.12.6.6,0,0,0-.73-.73l-1.65.31c-.75.15-.43,1.3.32,1.16l.68-.13a55.79,55.79,0,0,1-3.23,9.73.62.62,0,0,0,0,.46c-1.24.77-3.39.5-4.6.29a36.25,36.25,0,0,1-8.15-2.5A36.65,36.65,0,0,1,35.2,87.44a20.89,20.89,0,0,1-4.59-8.62,50.69,50.69,0,0,0,10.91-6.76.49.49,0,0,0,.18-.29,99.85,99.85,0,0,0,9.17,6.74c4,2.7,7.88,5.55,12,8.07,3.45,2.12,7.42,3.83,11.55,3.07a12.05,12.05,0,0,0,8.93-7.41.59.59,0,0,0,0-.21c1.29-1.54,2.55-3.12,3.78-4.71,2.08.52,3,2.87,3.1,4.82.21,2.86-.71,5.71.23,8.51a.61.61,0,0,0,1,.26l9.7-9.58A64.78,64.78,0,0,0,109,72.75a23.71,23.71,0,0,0,1.7-2.82.59.59,0,0,0,.53-.58v-.48s0,0,0,0c.24-.55.46-1.1.65-1.67a.51.51,0,0,0-.34-.68A44.21,44.21,0,0,0,110,35.87a.46.46,0,0,0-.44-.31,142.12,142.12,0,0,0,5-18.49c.36-1.82,1.11-4.31.4-6.21A7.41,7.41,0,0,0,116.22,5.72ZM114,12a1.1,1.1,0,0,1,0,.18A.83.83,0,0,0,114,12Zm-.57-1.41a.68.68,0,0,1,.12.12h0a1.34,1.34,0,0,1-.11.14.5.5,0,0,0-.09-.29Zm-.11-1.67-.08.16,0,0A1.71,1.71,0,0,0,113.35,8.91Zm-.76,1.39a.51.51,0,0,0,.07-.17,2,2,0,0,1,.32.1.3.3,0,0,0,0,.08.62.62,0,0,0-.46,0Zm.26,1.73.08.1-1,1.49C112.19,13.08,112.53,12.56,112.85,12ZM111,10.46s0,0,0,.07l-1.38,2.17h0c-.1,0-.2,0-.3-.06C109.91,11.92,110.46,11.19,111,10.46Zm-.2,2.63c-.24.44-.44.89-.66,1.33a.58.58,0,0,0-.12-.1Zm-1.11,2.25Zm-2.18-4-.07.09-.11,0Zm-1.29.38a.57.57,0,0,0,0,.49,5.24,5.24,0,0,0,.3.51.65.65,0,0,0,.42.62l.17.21,0,.05A14.11,14.11,0,0,1,105.48,12ZM36.52,39.05a19.71,19.71,0,0,0-3.43-.31c-.55,0-1.09-.11-.74-.76a6,6,0,0,1,1.41-1.44l6.66-6L47,24.62c1.86-1.66,3.73-3.31,5.72-4.81,4-3,8.57-5.33,13.67-5.34A38.45,38.45,0,0,1,76,16c2.64.67,5.41,1.4,7.41,3.36a.55.55,0,0,0,.39.17A140.79,140.79,0,0,0,61.07,34,138.31,138.31,0,0,0,47.58,46,18,18,0,0,0,36.52,39.05Zm75.22,21.51A43.17,43.17,0,0,1,110,67.27a.51.51,0,0,0,.27.65A27.24,27.24,0,0,1,104.78,76c-2.83,3-5.86,5.88-8.8,8.79l-4.62,4.56c-.49-2.68.39-5.44,0-8.14-.33-2-1.42-4.15-3.4-4.88a145.8,145.8,0,0,0,15-24.39,146.74,146.74,0,0,0,6.26-15.07A43.37,43.37,0,0,1,111.74,60.56Zm.43-38.07q-1,4.34-2.36,8.61A146.19,146.19,0,0,1,103.39,48,143,143,0,0,1,84.78,78.42q-1.4,1.74-2.84,3.44a.61.61,0,0,0-.08.69,10.89,10.89,0,0,1-7.21,5.82c-3.91.95-7.75-.72-11-2.72-3.82-2.33-7.45-5-11.15-7.51a112.93,112.93,0,0,1-9.59-6.94,28.51,28.51,0,0,1-7.46-9.07A137.46,137.46,0,0,1,58.22,37.84,140.55,140.55,0,0,1,86.29,19.62a137.78,137.78,0,0,1,15.53-6.47c.81-.28,1.63-.54,2.45-.81a15.42,15.42,0,0,0,5.65,4.43.66.66,0,0,0,.88.36,15.56,15.56,0,0,0,2,.63.59.59,0,0,0,.44-.07C112.94,19.3,112.56,20.9,112.17,22.49Zm1.29-5.7a.53.53,0,0,0-.3-.18l-.7-.19.5-.67.16.1a.53.53,0,0,0,.52,0Zm.34-1.9a.29.29,0,0,0-.08-.07l0,0c.07-.08.13-.17.19-.25Zm.27-2.08h-.16l.09-.12a.71.71,0,0,0,.07-.16Z" transform="translate(-2.05 -5.14)"/><path class="cls-1" d="M95.35,26l.24-.18c.62-.43,0-1.47-.61-1-.29.2-.56.42-.85.63a10.28,10.28,0,0,0-2.62-.66c-.77-.09-.76,1.11,0,1.19.16,0,.32.06.48.09-2.67.76-4.12,3.94-4.83,6.42a6.32,6.32,0,0,0,.25,4.72,6.36,6.36,0,0,0,2,2.23l-.33.3c-.58.51.27,1.35.85.85l.6-.54a7.22,7.22,0,0,0,1.54.48l-.62.63c-.53.55.31,1.4.85.85l1.37-1.41a6.21,6.21,0,0,0,4.16-2,7.87,7.87,0,0,0,1.57-8A9,9,0,0,0,95.35,26Zm-3.82,1.52c-.44.39-.87.8-1.3,1.22A5,5,0,0,1,91.53,27.51ZM88,34.08a8.9,8.9,0,0,1,.35-1.64.24.24,0,0,0,.08-.06,35.63,35.63,0,0,1,5.84-5.61c.23.11.44.23.66.36a75.87,75.87,0,0,0-6.93,7Zm.14,1.65a75.55,75.55,0,0,1,7.8-7.9,8.17,8.17,0,0,1,.69.63.51.51,0,0,0-.45.18l-7.57,8.19A4.29,4.29,0,0,1,88.18,35.73Zm9.54,1A5.6,5.6,0,0,1,95.24,39l2.83-2.91C98,36.29,97.85,36.52,97.72,36.74Zm.93-2.82a.57.57,0,0,0-.32.16L93.15,39.4a5.42,5.42,0,0,1-1.31-.17,2.85,2.85,0,0,1-.31-.12A62.89,62.89,0,0,0,98.12,32c.47-.6-.37-1.45-.85-.85a60.24,60.24,0,0,1-6.92,7.45,5.5,5.5,0,0,1-1-.77l7.68-8.31a.57.57,0,0,0,.15-.39,6.14,6.14,0,0,1,.59.85A6.51,6.51,0,0,1,98.65,33.92Z" transform="translate(-2.05 -5.14)"/><path class="cls-1" d="M70.69,48.54a.5.5,0,0,0-.12.08c-3.26.4-5.53,4.2-6.51,7.07a11.2,11.2,0,0,0-.4,6.65,8.09,8.09,0,0,0,.4,1.07.61.61,0,0,0,.36.72,7.18,7.18,0,0,0,.77,1.12c-.4.48.26,1.16.8.83a6.28,6.28,0,0,0,1.09.73c-.54.47,0,1.46.63,1l.62-.49a7.84,7.84,0,0,0,2.21.34l-.45.43a.6.6,0,0,0,.84.85c.49-.49,1-1,1.49-1.43a12.53,12.53,0,0,0,6.12-3.12,10.15,10.15,0,0,0,2.69-11C79.64,49.35,74.87,46.88,70.69,48.54ZM67.35,52c1.18-1.41,2.87-2.62,4.78-2.1h0a27.85,27.85,0,0,0-6.62,5.21A11.27,11.27,0,0,1,67.35,52ZM64.7,57.92c.06-.31.15-.62.23-.93a.49.49,0,0,0,.62-.14,27.17,27.17,0,0,1,7.55-6.11.6.6,0,0,0-.32-1.11.67.67,0,0,0,.09-.36,7.06,7.06,0,0,1,3.22.49.77.77,0,0,0-.17.07,58.93,58.93,0,0,0-11.37,9.35A9,9,0,0,1,64.7,57.92ZM65,62.4a8.08,8.08,0,0,1-.39-1.7.57.57,0,0,0,.31-.17,57.35,57.35,0,0,1,11.62-9.67.59.59,0,0,0,.19-.81,7.48,7.48,0,0,1,1.33.88A146.77,146.77,0,0,0,65,62.4Zm.52,1.17A145.48,145.48,0,0,1,78.9,51.78a6.4,6.4,0,0,1,.64.88.51.51,0,0,0-.34.14L66.09,64.43A6.17,6.17,0,0,1,65.51,63.57Zm13.26-1.2a11,11,0,0,1-4.33,3.29c1.58-1.42,3.21-2.8,4.88-4.12A8.51,8.51,0,0,1,78.77,62.37Zm.77-1.17a.65.65,0,0,0-1-.52q-3.44,2.7-6.62,5.69a8,8,0,0,1-2.35,0q5.67-4.47,11-9.36a.76.76,0,0,0,.11-.16A9.11,9.11,0,0,1,79.54,61.2Zm.15-5Q74.1,61.29,68.12,66a5.14,5.14,0,0,1-1.18-.71L80,53.66a8.12,8.12,0,0,1,.63,2.7A.62.62,0,0,0,79.69,56.16Z" transform="translate(-2.05 -5.14)"/><path class="cls-1" d="M33.22,93l1.31-.55c.57-.24.58-1.2-.16-1.17-6.57.26-12.7,2.77-18.68,5.27a.63.63,0,0,0-.44.58c0,1.64,1.63,2.4,3.09,2.45,2,0,3.78-1.74,5.76-1.17l-.27-1c-2.44,2.77-6.5,3.49-8.54,6.71-1.89,3-1.56,7.16-4.2,9.7a.6.6,0,0,0,.72.94,94.47,94.47,0,0,0,11.07-6.92l-.82-.82-7.32,16.45c-.21.47.29,1.22.82.82a81.06,81.06,0,0,0,9-7.95l-.94-.73q-2.32,5.22-5.14,10.17c-.38.67.65,1.28,1,.61q2.82-5,5.15-10.17c.26-.59-.43-1.25-.94-.73A78.74,78.74,0,0,1,15,123.2c.27.28.54.55.82.82q3.66-8.22,7.31-16.44c.22-.48-.27-1.22-.82-.82a95.61,95.61,0,0,1-11.06,6.91l.72.94c2.7-2.58,2.45-6.58,4.23-9.66,1.88-3.27,6.09-4,8.52-6.74a.61.61,0,0,0-.27-1c-1.84-.53-3.37.55-5.08,1-.91.24-2.86.15-2.88-1.14l-.44.58c5.87-2.46,11.91-5,18.36-5.24-.06-.39-.11-.78-.16-1.17l-1.31.54c-.7.3-.39,1.45.32,1.16Z" transform="translate(-2.05 -5.14)"/><path class="cls-1" d="M20.7,126.9q7-7.66,13.7-15.6l-1-.58a64.89,64.89,0,0,1-9,17.69c-.35.47.34,1.17.82.82a51.24,51.24,0,0,0,11.53-12.07l-1.09-.47a34.39,34.39,0,0,1-3.7,9.16c-.33.56.3,1.05.82.82,5.89-2.63,8.38-9.25,10.33-14.94l-1.18-.16a36.23,36.23,0,0,1-1.84,12.66.6.6,0,0,0,1,.58,19.6,19.6,0,0,0,4.47-8.5c.44-1.57.79-3.16,1.13-4.76a54.78,54.78,0,0,0,1-5.68,17.56,17.56,0,0,0-.42-6.42.6.6,0,0,0-1.15.32c1.2,4.44,0,9.16-1,13.53-.87,3.83-2,7.78-4.83,10.67l1,.58a37.38,37.38,0,0,0,1.88-13,.6.6,0,0,0-1.18-.15c-1.85,5.4-4.17,11.71-9.78,14.21l.82.82A35.24,35.24,0,0,0,36.77,117a.6.6,0,0,0-1.09-.46,49.53,49.53,0,0,1-11.11,11.64l.82.82a66,66,0,0,0,9.17-18c.18-.55-.62-1-1-.59q-6.71,7.93-13.7,15.6c-.52.57.32,1.42.84.85Z" transform="translate(-2.05 -5.14)"/><path class="cls-1" d="M12.7,117.92A44.87,44.87,0,0,0,2.11,132.35c-.31.7.72,1.31,1,.61a43.77,43.77,0,0,1,10.39-14.2c.58-.51-.27-1.36-.84-.84Z" transform="translate(-2.05 -5.14)"/><path class="cls-1" d="M15.76,130.33a73,73,0,0,0-9.32,19.14c-.61,1.95-1.14,3.94-1.59,5.94-.17.75,1,1.07,1.15.32a72.19,72.19,0,0,1,10.79-24.8c.44-.64-.6-1.24-1-.6Z" transform="translate(-2.05 -5.14)"/><path class="cls-1" d="M29.64,134.64a44.84,44.84,0,0,0-5.52,17c-.08.76,1.09,1,1.17.25a43.9,43.9,0,0,1,5.42-16.74c.38-.67-.69-1.21-1.07-.54Z" transform="translate(-2.05 -5.14)"/></svg>