<?xml version="1.0" encoding="utf-8"?>
<!-- Generator: Adobe Illustrator 22.1.0, SVG Export Plug-In . SVG Version: 6.00 Build 0)  -->
<svg version="1.1" id="Layer_1" xmlns="http://www.w3.org/2000/svg" x="0px" y="0px" viewBox="0 0 129.4 133.1" style="enable-background:new 0 0 129.4 133.1;" xml:space="preserve">
<style type="text/css">
	.st0{fill:none;stroke:#FFFFFF;stroke-miterlimit:10;}
</style>
<title>Asset 2Beauty_1</title>
<g id="Layer_2_1_">
	<g id="_1">
		<path class="st0" d="M103.1,109.7c2.1-9.7-0.6-20.7-7.3-29.4c1.7,1.2,3.3,2.4,4.9,3.8c0.8,0.7,1.5,1.3,2.3,1.9
			c2.1,2,4.3,3.7,6.6,5.3c3.9,2.4,7.8,3.2,11.3,2.4c3.6-0.9,7.3-4.5,6.9-8.8c-0.4-4.1-4.3-6.8-7.6-8.8c-3.3-1.9-6.9-4.1-7.8-7.7
			c-0.3-1.3-0.4-2.6-0.3-3.9c0.1-1.4,0-2.9-0.3-4.2c-1.1-4-5.2-6.2-8.8-6.7c-2.4-0.3-4.9-0.2-7.3,0.2c5.3-2.7,10.3-6,13.6-11
			c3.6-5.3,4.9-13.8,0-19c-1.3-1.3-2.8-2.4-4.4-3.4c-1.9-1-3.5-2.4-4.9-4c-1.1-1.8-2-3.7-2.4-5.8C97.2,10,97,9.2,96.7,8.3
			c-0.5-1.8-2.4-6-6.3-6.5c-3.2-0.4-5.8,1.9-8.3,4.5l-9.8,10.4c-2.2,2.2-4.1,4.5-5.8,7c-3.8,6-5.1,14-3.7,22.7
			c0.1,0.8,0.3,1.6,0.4,2.4c-8.3-9.6-20.4-15.2-33.2-15.3c-2.4,0-6.7,0.5-8.1,3.8c-0.5,1.6-0.5,3.3-0.1,4.9c0.3,1.8,0.6,3.6-0.4,4.9
			l-0.2,0.2c0,0-0.1,0.1-0.1,0.1c-1.1,1.2-3,1.3-5,1.3c-2.2,0.1-4.4,0.2-5.8,1.7c-1.3,1.3-1.4,3.1-1.6,4.8c-0.1,1-0.3,2.1-0.6,3
			c-0.7,1.5-1.7,2.7-2.9,3.8c-0.8,0.7-1.5,1.5-2.1,2.3c-0.1,0-0.2,0-0.2,0.1c-0.1,0.1-0.1,0.3-0.2,0.4c-0.3,0.4-0.5,0.8-0.6,1.3
			c-0.8,2.4-0.2,5.1,1.4,7c0.1,0.2,0.2,0.3,0.4,0.4c1.6,1.6,3.5,2.8,5.6,3.4c4.2,1.2,8.7,1.3,12.9,0.3c-2.2,3.4-3.9,7.2-5,11.1
			c-0.4,1.6-0.8,3.9,0.5,5.5c1.3,1.6,3.2,1.7,5.1,1.8c1.1,0,2.3,0.2,3.4,0.5c2.4,1,3.5,3.9,3.5,6.3c-0.1,1.9-0.4,3.9-1,5.7
			c-0.2,0.7-0.4,1.5-0.6,2.2c-0.8,3.6-0.5,6.3,0.7,8.4c0.2,0.4,0.5,0.7,0.8,1.1c2.6,2.9,7.4,3.3,10.8,1.7c3.9-1.7,6.7-5.1,9.1-8.6
			c4.1-5.9,7.6-12.1,10.5-18.7c-0.5,3-0.9,6.1-1.1,9.1c-0.4,3.9-0.4,9.2,2.8,12.4c0,0.1,0,0.2,0,0.2c0,0,0,0.1,0.1,0.1
			c0.1,0.1,0.1,0.1,0.2,0.1c0,0,0.1,0,0.1,0c0.1,0.1,0.3,0.2,0.4,0.3c0.8,0.5,1.6,1,2.4,1.4c1.1,0.5,2.1,1.1,2.9,1.9
			c0.9,1.2,1.6,2.6,1.9,4.1c0.3,1.3,0.8,2.6,1.6,3.8c0.2,0.2,0.4,0.5,0.6,0.7c2.5,2.7,6.8,3,10.2,2.4
			C92.2,129.1,100.8,120.3,103.1,109.7z M27.2,76.2c0.1,0,0.1-0.1,0.1-0.2c0,0,0.1,0,0.1-0.1c0.9-0.3,1.8-0.7,2.7-1
			c2.9-1.2,5.8-2.7,8.5-4.2c3.3-1.8,6.7-3.4,10.2-4.9c4.1-1.6,10.1-3.2,15.9-2c-0.2,0.5-0.3,1.1-0.3,1.7c-4.7-0.6-9.7,1.5-13,3.9
			c-1.2,0.9-2.4,1.8-3.6,2.7c-2.3,1.9-4.7,3.6-7.4,5c-3,1.3-6.2,2.3-9.5,2.9c-3.2,0.6-6.3,1.5-9.2,2.8
			C22.9,80.2,24.8,77.9,27.2,76.2z M2.9,66.7c0-0.1,0-0.1,0-0.1c0.3-0.8,0.8-1.6,1.4-2.3c5.3,2.9,12.1,3.7,20.3,2.3
			C28.3,66,32,65,35.5,64.1c3.2-0.8,6.5-1.7,9.7-2.3c7.5-1.4,13.8-1,18.9,1.1c-5.8-0.9-11.7,0.7-15.7,2.2c-3.5,1.4-6.9,3.1-10.3,4.9
			c-2.7,1.4-5.6,2.9-8.4,4.1c-2,0.9-4,1.6-6.1,2.1c-3.7,0.1-7.5-0.3-11.1-1.3c-1.7-0.4-3.4-0.9-5-1.7c-1.6-0.7-3-1.9-3.9-3.5
			C3.2,68.8,2.9,67.8,2.9,66.7L2.9,66.7z M74.5,65c0.5-0.5,1-0.9,1.5-1.3c1.5-1,3-1.9,4.6-2.8c1.2-0.6,2.4-1.2,3.6-1.8
			c4.9-1.6,9.9-2.5,15-2.6c2.5-0.2,5,0.2,7.3,1c1.8,0.7,3.3,2,4.3,3.7c0,0.2,0.1,0.5,0.1,0.7c-4.9-2.5-10.9-3.2-18.3-2.1
			c-6.4,1-12.6,3.3-18.5,5.6c0-0.1,0-0.1,0-0.2L74.5,65z M85.6,74.4c0,0.1,0,0.2,0.1,0.2c13.1,10.3,18.3,27.8,12.8,43.5
			c0,0,0,0.1,0,0.1c-1.3,2.1-2.9,4-4.8,5.7c-1-0.5-1.7-1.4-1.8-2.5c-0.2-1.1-0.1-2.3,0.1-3.4c0.4-2.3,0.9-4.5,1.4-6.8
			c1.2-5,2.4-10.1,1.7-15.3c-0.9-7-5-12.5-8.3-16c-3.7-3.7-7.8-7-12.2-9.8c0.7,0.2,1.4,0.5,2,0.7l0.7,0.2C80.3,72,83,73.1,85.6,74.4
			z M102.2,109.5c-0.5,2.5-1.4,4.9-2.6,7.1C104,101.4,99,85.1,86.9,75c2.1,1,4.1,2.2,6.1,3.4c0.7,0.7,1.3,1.5,1.9,2.3
			C101.5,89.3,104.3,100,102.2,109.5z M120.5,92.8c-3.2,0.8-6.9,0-10.5-2.3c-2.3-1.5-4.5-3.3-6.5-5.2c-0.7-0.7-1.5-1.3-2.3-1.9
			c-2.4-2.1-4.9-4-7.6-5.7l0,0c-4.9-3.2-10.3-5.7-15.9-7.5L77,70c-1.3-0.4-2.5-0.8-3.8-1.4c0.1-0.2,0.2-0.3,0.3-0.5
			c5.5,0.3,11,0.9,16.4,1.9c5.5,1,10.7,3.2,15.3,6.4c2,1.5,4,3.2,5.8,5c1.1,1.1,2.3,2.1,3.4,3.1c3.7,3.2,7.1,5,10.5,5.6
			C123.8,91.5,122.3,92.4,120.5,92.8z M119.6,77c3.3,1.9,6.7,4.5,7.1,8.1c0.2,1.6-0.3,3.3-1.3,4.6c-3.4-0.5-6.7-2.2-10.5-5.5
			c-1.2-1-2.3-2.1-3.4-3.1c-1.8-1.8-3.8-3.5-5.8-5c-4.6-3.2-9.9-5.4-15.5-6.5c-5.4-1-10.8-1.7-16.3-1.9c0.1-0.2,0.2-0.5,0.3-0.8
			l12,0.2c4.6,0,9.3,0.2,13.9,0.8c4.5,0.5,8.9,1.9,12.9,4.1C114.6,74,117.2,75.6,119.6,77L119.6,77z M111.3,68.8
			c0.2,0.8,0.5,1.6,1,2.2c-3.9-1.9-8-3.1-12.3-3.6c-4.6-0.5-9.3-0.8-13.9-0.8l-11.9-0.2c0-0.2,0-0.4,0-0.5c6-2.3,12.2-4.7,18.7-5.6
			c7.4-1.1,13.4-0.4,18.2,2.2c0,0.7,0,1.3,0,2.1C111,66,111.1,67.4,111.3,68.8L111.3,68.8z M102.7,54.6c3.1,0.4,6.5,2.1,7.8,5.2
			c-1-1.2-2.3-2.1-3.7-2.7c-2.4-0.9-5-1.2-7.5-1.1c-4.1,0.1-8.1,0.6-12.1,1.7l1.5-0.7l1.4-0.6l1.8-0.8
			C95.4,54.6,99.1,54.2,102.7,54.6L102.7,54.6z M91.5,54.8L91.5,54.8l-1.8,0.8l-1.3,0.6c-2.7,1.2-5.5,2.4-8.1,3.9
			c-1.6,0.8-3.2,1.8-4.7,2.8c-0.5,0.4-1,0.8-1.5,1.3L74,64c4.7-5.1,9.2-10,15.6-13.2c2.1-1,4.2-1.9,6.4-2.7c1.9-0.7,3.8-1.4,5.7-2.3
			c3-1.4,5.8-3.3,8-5.7c-0.4,0.8-0.8,1.5-1.3,2.2C104.4,48.3,97.9,51.8,91.5,54.8L91.5,54.8z M110.4,38.4c-2.2,3.5-6.4,5.8-9,7.1
			c-1.8,0.9-3.7,1.6-5.6,2.3c-2.2,0.8-4.4,1.7-6.5,2.7c-6.4,3.2-10.9,8-15.6,13.1c-0.1-0.1-0.1-0.3-0.2-0.4l0,0
			c2.2-4.5,5.8-8.6,11.6-12.9c2-1.5,4.2-3,6.2-4.4c2.7-1.9,5.5-3.8,8.1-5.8c5.3-4.3,8.8-8.6,10.6-13.3
			C111.9,30.1,111.8,34.5,110.4,38.4z M99.3,17.1c1.4,1.7,3.1,3.1,5.1,4.2c1.5,0.9,2.9,2,4.2,3.2l0.1,0.1c0.4,0.4,0.7,0.9,1,1.4
			c-1.8,4.7-5.2,9.1-10.6,13.4c-2.6,2.1-5.4,4-8,5.8c-2.1,1.4-4.2,2.9-6.2,4.4c-5.7,4.3-9.4,8.5-11.6,13c-0.2-0.2-0.4-0.5-0.6-0.7
			c2.5-8.1,8.1-15,13.6-21.4l1.2-1.2c5.3-6.1,10.8-12.4,13.9-20c0-0.1,0-0.3-0.1-0.3c-0.1,0-0.3,0-0.3,0.1
			c-3.1,7.5-8.6,13.8-13.9,19.9l-1.1,1.2c-5.6,6.4-11.2,13.2-13.7,21.4c-0.2-0.2-0.5-0.3-0.8-0.5l0,0c2-10.1,6-19.7,11.8-28.2
			c1.2-1.8,2.5-3.5,3.8-5.2c3.9-5.3,8-10.7,9.6-17.2l0.1,0.3C97.2,13.2,98.1,15.3,99.3,17.1z M95.9,8.6c0.1,0.4,0.3,0.9,0.4,1.3
			c0,0,0,0.1,0,0.1c-1.5,6.6-5.7,12.2-9.7,17.7c-1.3,1.7-2.6,3.5-3.8,5.2C77,41.4,73,51,70.9,61.1c-0.5-0.2-0.9-0.3-1.4-0.3
			c-1-8.8,1.5-18.4,7.6-29.4c2.2-4,4.7-8,7.1-11.8c3.3-4.9,6.3-10.1,9-15.3C94.5,5.5,95.4,7,95.9,8.6z M90.3,2.8
			c1,0.1,1.9,0.5,2.6,1.2c-2.7,5.3-5.8,10.4-9.1,15.4c-2.4,3.8-4.9,7.8-7.2,11.8c-6.1,11-8.6,20.7-7.6,29.6c-0.2,0-0.4,0-0.6,0.1
			c-2.2-9.2-2.1-18.8,0.2-27.9c2-8,5.5-15.5,10.5-22L82.8,7C85.1,4.6,87.5,2.4,90.3,2.8z M67.3,24.2c1.7-2.5,3.6-4.8,5.7-6.9
			l3.6-3.9c-3.9,5.9-6.8,12.5-8.5,19.4C65.8,42,65.8,51.7,68,60.9h-0.1c-0.1-0.4-0.3-0.9-0.4-1.3c-0.2-0.6-0.4-1.2-0.5-1.6
			c-0.9-2.5-1.7-5-2.4-7.6l0,0c-0.4-1.5-0.7-2.9-0.9-4.2C62.4,37.9,63.6,30,67.3,24.2z M22.9,37.7c1.1-2.8,5-3.2,7.2-3.2
			c2.6,0,5.3,0.2,7.9,0.7c-2.4-0.2-4.9-0.2-7.3,0.1c-1.6,0.2-3.2,0.5-4.7,1.2c-1.2,0.5-2.4,1.3-3.3,2.3
			C22.7,38.4,22.8,38.1,22.9,37.7z M22.6,39.5c0.9-1.1,2.1-2,3.5-2.6c1.5-0.6,3-1,4.6-1.1c4.5-0.5,9-0.2,13.4,1.1
			c7.8,2.7,14.6,7.5,19.7,14c0.7,2.6,1.4,5.1,2.4,7.5c0.1,0.4,0.3,0.9,0.5,1.5l0.4,1.4c-0.3,0.1-0.5,0.3-0.8,0.5
			c-1-5.8-5-11.4-10.8-15.2c-6.2-4.1-13.8-5.7-18.9-6.6c-2.4-0.5-4.9-0.7-7.3-0.5c-2.3,0.1-4.6,0.9-6.5,2.3
			C22.7,41,22.6,40.3,22.6,39.5z M22.9,42.3c1.9-1.4,4.1-2.2,6.5-2.3c2.4-0.1,4.8,0.1,7.2,0.5c5.1,0.9,12.5,2.5,18.7,6.5
			c5.8,3.8,9.7,9.4,10.6,15.2l0,0c-1.7-2.6-4.5-4.3-6.9-5.8c-5.2-3.1-10.5-6.4-16.3-8.3c-6.4-2.1-13.3-2.4-19.9-1
			C23.4,45.6,23.1,43.9,22.9,42.3z M16.3,49.8c2.3-0.1,4.6-0.2,6-2l0.1-0.1c6.7-1.5,13.6-1.3,20.1,0.8c5.8,1.9,11.1,5.2,16.2,8.4
			c2.3,1.4,4.9,3,6.6,5.4c-10.8-5.3-22.7-8-34.7-7.7c-1.1,0-2.3,0.1-3.4,0.1c-2.4,0.2-4.8,0.2-7.2,0.1c-3.3-0.1-6.6-1-9.5-2.6
			c0.2-0.3,0.4-0.6,0.6-0.9C12.3,49.9,14.2,49.8,16.3,49.8z M9.1,58.7c0.4-1.1,0.6-2.2,0.6-3.3c0.1-1,0.2-1.9,0.5-2.9
			c3,1.6,6.3,2.5,9.6,2.6c2.4,0.1,4.8,0.1,7.3-0.1c1.1-0.1,2.3-0.1,3.4-0.1c12.1-0.3,24,2.4,34.8,7.8l-0.1,0.1
			c-5.3-2.5-12.1-3-20.2-1.5c-3.3,0.6-6.6,1.5-9.7,2.3c-3.5,1-7.1,1.9-10.8,2.5c-8,1.3-14.7,0.6-19.9-2.2c0.4-0.4,0.8-0.8,1.2-1.2
			C7.3,61.6,8.3,60.2,9.1,58.7z M9.8,76.3c-2.2-0.6-4.1-1.8-5.6-3.6c-1-1.3-1.5-2.8-1.5-4.4c0.1,0.6,0.3,1.1,0.6,1.6
			c0.3,0.5,0.6,1,1,1.4c0.9,0.9,1.9,1.7,3,2.3c1.6,0.8,3.4,1.4,5.1,1.7c2.9,0.8,6,1.3,9,1.4C17.6,77.6,13.6,77.4,9.8,76.3z
			 M18.7,93.4c-1-1.3-0.7-3.3-0.3-4.7c1.1-4.2,2.9-8.1,5.4-11.7c0.8-0.2,1.6-0.4,2.4-0.7c-5.6,4.2-7.8,11.5-5.6,18.2
			C19.9,94.4,19.2,94,18.7,93.4z M21.2,94.7L21.2,94.7c-1.2-3.3-1.2-6.9-0.1-10.3c0.1-0.3,0.2-0.7,0.4-1c0,0,0.1,0,0.1,0
			c3-1.3,6.2-2.3,9.5-2.9c3.3-0.6,6.5-1.6,9.6-2.9c2.7-1.4,5.1-3.1,7.4-5c1.1-0.9,2.3-1.8,3.6-2.7c3.1-2.2,8.2-4.4,12.8-3.8
			c0,0.5,0.1,1.1,0.3,1.6c-4,1.2-8.2,2.5-11.7,5.1c-1.7,1.4-3.3,2.9-4.8,4.5c-1.4,1.6-2.9,3-4.6,4.4c-2.5,1.8-5.2,3.2-8.1,4.3
			c-1,0.4-1.9,0.8-2.9,1.3c-3,1.4-7.2,3.7-9.4,7.6h-0.2C22.5,94.9,21.8,94.8,21.2,94.7z M26.8,95.4c-0.9-0.3-1.9-0.5-2.9-0.5
			c2.1-3.7,6.2-5.8,9.1-7.2c1-0.4,1.9-0.9,2.8-1.3c2.9-1.1,5.7-2.6,8.2-4.4c1.7-1.3,3.2-2.8,4.7-4.4c1.4-1.6,3-3.1,4.7-4.5
			c3.4-2.6,7.5-3.8,11.6-5.1l0.1,0.1c0.1,0.2,0.3,0.4,0.4,0.6c-3.1,0.3-5.9,1.7-7.9,4c-1.5,1.7-2.9,3.5-4.1,5.5
			c-0.5,0.8-1.1,1.6-1.6,2.4c-5.5,7.8-13.3,13.7-22.4,16.8C28.8,96.6,27.9,95.8,26.8,95.4L26.8,95.4z M30.9,102.6
			c0-1.6-0.4-3.3-1.2-4.7c9.1-3.1,17-9.1,22.5-17c0.6-0.8,1.1-1.6,1.6-2.4c1.2-1.9,2.5-3.7,4-5.4c2.4-2.6,5.3-4,8-3.9
			c0.3,0.3,0.6,0.5,0.9,0.7c-5.3,4.2-9.9,9.3-13.7,15c-1.2,1.8-2.4,3.8-3.5,5.7c-1.8,3.2-3.7,6.2-5.9,9.1c-4,5.1-8.9,8.3-13.7,8.9
			C30.5,106.6,30.9,104.6,30.9,102.6L30.9,102.6z M40.4,121c-3.4,1.5-8.4,1-10.5-2.5c-1.1-1.9-1.3-4.4-0.6-7.7
			c0.1-0.6,0.3-1.2,0.5-1.9c5-0.6,10.1-3.8,14.3-9c2.2-2.9,4.2-5.9,5.9-9.1c1.1-1.9,2.2-3.8,3.4-5.6c3.7-5.7,8.3-10.7,13.6-14.9
			v-0.1l-0.1,0.6c-6.1,6.3-9.9,14.4-13.6,22.3c-0.4,0.8-0.8,1.7-1.2,2.5c-4,8.3-8.9,17.7-16.9,23.5c-0.1,0.1-0.1,0.2,0,0.3
			c0,0,0,0,0,0l0,0c0.1,0.1,0.2,0.1,0.3,0c8.1-5.9,13.1-15.3,17.1-23.6c0.4-0.8,0.8-1.7,1.2-2.5c3.6-7.6,7.3-15.4,13-21.5
			c-0.1,0.6-0.3,1.1-0.4,1.6c-0.6,2.9-1.4,5.8-2.2,8.6s-1.9,5.8-2.9,8.6l0,0c-3.1,7.8-7.1,15.3-11.9,22.2
			C46.8,116,44.1,119.4,40.4,121L40.4,121z M60.1,103.7c0.4-4.3,1-8.7,1.8-13c1.1-2.8,2.1-5.7,3-8.6c0.9-2.9,1.6-5.8,2.3-8.7
			c0.1-0.6,0.3-1.3,0.5-2.1c0.1-0.3,0.2-0.6,0.3-1c0.5,0.1,1,0.2,1.5,0.2c0.7,8.9-0.5,17.9-3.4,26.3c-0.4,1.1-0.8,2.3-1.3,3.4
			c-0.7,1.9-1.5,4-2.1,6c-0.8,2.6-1.1,5.3-1,7.9C59.8,111.3,59.8,106.9,60.1,103.7z M68.8,119.4c-0.9-0.9-2-1.6-3.2-2.1
			c-0.8-0.4-1.5-0.8-2.3-1.3c-0.4-0.3-0.7-0.6-1.1-1c-0.3-2.9,0-5.8,0.9-8.5c0.6-2,1.3-4,2.1-6c0.4-1.1,0.9-2.2,1.3-3.4
			c3-8.5,4.1-17.5,3.4-26.5h0.2l0.4-0.1c5.9,11.1,6.6,24.2,1.9,35.9c-0.3,0.8-0.7,1.6-1.1,2.4c-0.7,1.5-1.3,3.1-1.9,4.7
			c-0.7,2-0.9,4-0.7,6.1L68.8,119.4L68.8,119.4z M72.3,127.4c-0.7-1.1-1.2-2.3-1.5-3.6c-0.3-1.1-0.7-2.2-1.2-3.3
			c-0.5-2.3-0.3-4.7,0.5-6.9c0.5-1.6,1.2-3.2,1.9-4.7c0.4-0.8,0.7-1.6,1.1-2.4c4.7-11.8,4-25-1.9-36.2l0.4-0.2
			c11.3,11.1,14.9,27.8,9.1,42.6c-0.4,1-0.8,2-1.3,3c-0.9,1.9-1.6,3.9-2.2,5.9c-0.9,2.9-0.7,5.9,0.4,8.7
			C75.5,130.1,73.5,129.1,72.3,127.4L72.3,127.4z M82.1,130.1c-1.3,0.3-2.7,0.3-4.1,0.2c-1.6-3.1-1.1-6.7-0.6-8.6
			c0.6-2,1.3-4,2.2-5.8c0.4-1,0.9-1.9,1.3-3c5.8-14.9,2.2-31.7-9.1-43c0.3-0.2,0.5-0.4,0.7-0.6c4.6,3.1,9.7,6.6,14,11
			c3.3,3.4,7.3,8.9,8.2,15.8c0.6,5.1-0.6,10.2-1.7,15.1c-0.5,2.2-1.1,4.5-1.4,6.8c-0.2,1.2-0.3,2.4-0.1,3.6c0.1,0.8,0.5,1.5,1,2.1
			c0.3,0.3,0.6,0.5,0.9,0.7C90.2,127.3,86.3,129.2,82.1,130.1L82.1,130.1z"/>
	</g>
</g>
</svg>
