<?xml version="1.0" encoding="utf-8"?>
<!-- Generator: Adobe Illustrator 22.1.0, SVG Export Plug-In . SVG Version: 6.00 Build 0)  -->
<svg version="1.1" id="Layer_1" xmlns="http://www.w3.org/2000/svg" x="0px" y="0px" viewBox="0 0 103 139.4" style="enable-background:new 0 0 103 139.4;" xml:space="preserve">
<style type="text/css">
	.st0{fill:#FFFFFF;}
</style>
<title>Asset 6Beauty_1</title>
<g id="Layer_2_1_">
	<g id="_12">
		<path class="st0" d="M61.1,120.8c0.1-0.1,0.1-0.2,0-0.2c0-0.1-0.1-0.1-0.2-0.1c-4.5,1.4-9.3,0.2-12.6-0.8
			c-1.2-0.4-2.4-0.8-3.6-1.2c-2.9-1.1-5.8-1.9-8.8-2.5c-4.9-0.7-9.9,0.1-14.3,2.1l0.5-0.6c1.3-1.7,2.6-3.4,3.8-5.1
			c4.3-1.2,6.9-0.5,10.6,0.6l2,0.5c1.3,0.3,2.6,0.7,3.8,1.1c3.4,1.2,7,1.9,10.6,2.2c1.6,0.1,3.3,0,4.9-0.3h0.8
			c0.1,0,0.1-0.1,0.1-0.1c0,0,0,0,0,0l0,0c1.4-0.3,2.8-0.8,4.2-1.3c3.2-1.3,6-3.4,8.2-6c0.1-0.1,0.1-0.2,0-0.3
			c-0.1-0.1-0.2-0.1-0.2-0.1c-3.9,1.5-8.5,1.5-14.5-0.1c-1.5-0.4-3.1-0.9-4.5-1.3c-3.2-1.1-6.6-1.9-9.9-2.3
			c-5.3-0.6-9.5,0.3-12.5,2.6l0,0l0,0c1.3-1.9,2.6-3.9,3.8-5.8l0-0.1c0,0,0.1,0,0.1-0.1c2.4-2.3,5.4-2.1,8.4-1.8
			c2.1,0.4,4.2,1.1,6.1,2.1c0.9,0.4,1.8,0.9,2.8,1.3c3.2,1.3,6.3,2.4,9.6,2.6c4.8,0.1,9.4-1.9,12.5-5.6c0.1-0.1,0.1-0.2,0-0.2
			c-0.1-0.1-0.2-0.1-0.2-0.1l-0.2,0.1l0,0c0,0-0.1,0-0.1,0c-0.1,0.1-0.3,0.2-0.4,0.3c-3.2,1-7,0.9-11.5-0.4
			c-1.8-0.5-3.5-1.1-5.2-1.7c-2.2-0.8-4.5-1.6-6.9-2.1c-4.9-1.1-8.6-1-11.7,0.7c0.2-0.3,0.3-0.5,0.4-0.8c0.3-0.5,0.6-1.1,1-1.8
			c0.6-1.1,1.3-2.3,1.9-3.5c3.1-1,6-0.2,9.1,0.5c0.7,0.2,1.5,0.4,2.2,0.5l2.1,0.5c3.3,0.9,6.8,1.4,10.3,1.5
			c5.6-0.3,10.8-2.9,14.3-7.3c0.1-0.1,0.1-0.2,0-0.3c-0.1-0.1-0.2-0.1-0.3,0c-2.6,1.5-5.9,1.9-10,1.1c-1.6-0.3-3.1-0.8-4.7-1.2
			c-1.8-0.5-3.6-1-5.5-1.3c-5.4-0.8-10.9,0.1-15.8,2.4l0.1-0.2c0.6-1.4,1.3-2.8,1.9-4.1c3.5-3,7.9-2.7,12.6-2.4l1,0.1
			c2.3,0.2,4.7,0.5,7,0.8c2.7,0.4,5.5,0.7,8.2,0.8c6,0.2,11-1.5,14.1-4.6c0-0.1,0-0.2,0-0.2c0-0.1-0.1-0.1-0.2-0.1
			c-3.4-0.4-6.9-1.1-10.2-1.8c-3.3-0.7-7-1.4-10.6-1.8c-3.6-0.4-7.2-0.2-10.8,0.5c-3.3,0.6-6.4,2-9.1,4c0.2-0.4,0.3-0.7,0.4-1.1l0,0
			c0.7-2,1.4-4,2.1-5.9l0,0l0,0l0.5-1.5c3.3-2,6.5-1.2,10.2-0.3c1,0.2,1.9,0.4,2.9,0.6c1.8,0.4,3.6,0.8,5.3,1.3
			c3.1,0.9,6.2,1.5,9.4,1.8c6.7,0.5,13.4-1.4,18.8-5.4c0.1-0.1,0.1-0.2,0.1-0.2l0,0c0-0.1-0.1-0.1-0.2-0.1
			C89.1,68,83.6,66.5,78.9,65l-2-0.6c-4.4-1.4-8.9-2.9-13.6-3.1S52.4,62.6,49,66.6c0.4-1.5,0.8-3,1.1-4.5l0,0c0-0.2,0.1-0.4,0.1-0.6
			l0,0c4.1-2.9,9.7-4,16.4-3.3c2.5,0.3,5.1,0.7,7.6,1.1c3.2,0.6,6.5,1.1,9.8,1.3c4.9,0.3,11.7-0.4,16.5-4.8c0.1-0.1,0.1-0.1,0.1-0.2
			c0-0.1-0.1-0.1-0.2-0.1l-0.4-0.1l0,0c0-0.1-0.1-0.1-0.1-0.1H100l-19.5-3.5c-5.1-1-10.4-1.9-15.7-1.3c-2.9,0.4-5.6,1.3-8.1,2.8
			c-2.2,1.2-4.2,2.9-5.7,4.9c0.3-1.7,0.6-3.5,0.8-5.2l0.5-1.2c2.1-5,4.2-10.1,5.1-15.4c1.2-5.8,1.2-11.8,0.3-17.7
			c-1-5.9-3.8-11.4-8.1-15.6c-0.1-0.1-0.2-0.1-0.2,0c-0.1,0-0.1,0.1-0.1,0.2c0,0,0,0.1,0,0.1l0,0c0,0,0,0.1,0,0.1L49.3,4
			c1.9,7.9,1.5,16.4,1.1,24.7c-0.4,8.2-0.9,16.5,1,24.3c-0.2,1.3-0.3,2.6-0.6,4c-3.4-7-8.5-13-13.5-18.8c-0.9-1-1.7-2-2.6-3
			c-5.9-7-11.7-14.7-13.7-23.7c0-0.1-0.1-0.2-0.2-0.2c-0.1,0-0.2,0.1-0.2,0.2c-0.4,5.1,0.2,10.2,1.8,15.1c0.3,0.8,0.5,1.6,0.9,2.3
			c1.6,4,3.9,7.7,6.7,10.9c2.2,2.4,4.6,4.7,7.2,6.8c1.3,1.2,2.7,2.4,4.1,3.6c3.6,3.3,7.1,7,8.6,11.9c-0.3,1.5-0.7,3.1-1.2,4.7
			c-0.5-3.8-2.8-7.9-6.5-12.2c-3.8-4.2-8.2-7.7-13.1-10.6c-1.5-0.9-3-1.7-4.5-2.5c-1.7-0.9-3.4-1.8-5-2.8c-3.7-2.3-6.2-4.6-7.7-7.3
			c0-0.1-0.1-0.1-0.2-0.1c-0.1,0-0.1,0.1-0.1,0.2c0.2,2.1,0.8,4.2,1.6,6.2c1.5,3.7,3.9,6.9,6.9,9.4c3.2,2.6,7,4.3,10.7,6l0.6,0.2
			c4,1.8,7.9,3.7,11,6.5c3.7,3.4,5.6,7.5,5.3,11.1c-0.6,1.8-1.2,3.6-1.8,5.3c-1.3-4.6-3.7-8.9-6.9-12.6c-3-3.3-6.7-5.9-10.7-7.8
			c-1.4-0.7-2.9-1.3-4.3-1.8c-1.5-0.6-3.1-1.2-4.6-1.9c-3.5-1.7-5.8-3.7-7.2-6.1c0-0.1-0.1-0.1-0.2-0.1c-0.1,0-0.1,0.1-0.1,0.2
			c0.1,1.3,0.4,2.6,0.9,3.8c1.8,4.5,5.8,7.6,8.3,9.2c2.3,1.4,4.6,2.7,7,3.8c2.5,1.2,5,2.5,7.4,4c2.6,1.7,8.7,6.4,9,13
			c-0.3,0.8-0.7,1.7-1.1,2.6c-0.4,0.9-1,2.1-1.4,3.2C41.7,80.9,39,76,36,72.9c-2.8-2.6-5.9-4.9-9.2-6.9l-2.5-1.6
			c-3.7-2.4-7.9-5.5-10.2-9.8c0-0.1-0.1-0.1-0.2-0.1c-0.1,0-0.2,0.1-0.2,0.2c0.1,4.4,1.7,8.6,4.5,12c2.3,2.6,5,4.8,7.9,6.7
			c2.1,1.4,4.2,3,6.1,4.7c3.6,3.4,6.2,6.7,7.4,11.5l-0.4,0.7l0,0c-0.6,1.2-1.3,2.4-1.9,3.5c-0.2,0.4-0.4,0.7-0.6,1.1
			c-0.1-5-2.2-9.8-5.7-13.5c-2.4-2.5-5-4.8-7.8-6.9c-1.4-1.1-2.9-2.3-4.2-3.5c-4.9-4.4-7.8-8.4-9-12.7c0-0.1-0.1-0.2-0.2-0.2
			c-0.1,0-0.1,0.1-0.2,0.2c-0.6,4.4,0,8.8,1.7,12.9c0.5,1.3,1.2,2.5,1.9,3.7c2.6,4.2,6.3,7.5,9.9,10.8c2,1.8,4,3.6,5.8,5.5
			c2.4,2.5,4.7,5.3,5,8.5l-1.2,1.9c-1.1,1.7-2.3,3.5-3.5,5.3c-0.2-6.2-2.4-12.2-6.3-17c-1.9-2.1-3.9-4-6-5.8c-1-0.9-2-1.7-2.9-2.6
			c-2.4-2.2-5.6-5.6-6.8-9.9c0-0.1-0.1-0.1-0.2-0.1c-0.1,0-0.2,0-0.2,0.1C5.6,74.6,5.7,78,7,81.1c0,0,0,0.1,0,0.1
			c1.3,2.9,3.1,5.6,5.3,7.8c0.8,0.9,1.7,1.8,2.5,2.6c1.4,1.4,2.8,2.9,4,4.3c4.3,5.2,6.7,9.6,7.8,14.6c-1.4,1.9-2.9,3.9-4.4,5.9
			c1-4.1,0.2-8.9-2.4-13.5c-1.8-2.9-3.8-5.7-6.1-8.3c-1-1.2-2-2.4-2.9-3.7c-3.8-4.9-5.7-9.2-6-13.3c0-0.1-0.1-0.2-0.2-0.2
			c-0.1,0-0.2,0-0.2,0.1C2,81.6,1.6,86.5,3.4,90.8c1.4,3.1,3.3,5.9,5.7,8.3c0.6,0.7,1.3,1.4,2,2c2.3,2.2,4.3,4.5,6.1,7.1
			c2,3.1,3.6,7.9,2.2,11.9c0,0,0,0,0,0.1l-0.5,0.6c0,0-0.1,0.1-0.1,0.1c-3.7,4.7-7.8,9.4-12.9,15c0,0.1,0,0.2,0,0.2l0.1,0.1
			c0.1,0.1,0.2,0.1,0.3,0c5-5.6,9.1-10.4,12.9-15.1c3.3-1.3,6.6-0.6,10.1,0.1l0.4,0.1c1.7,0.4,3.4,0.9,5,1.6
			c1.6,0.6,3.2,1.1,4.8,1.5c3.7,0.9,7.5,1.3,11.3,1C54.6,125.1,58.3,123.5,61.1,120.8z M39.8,90.2L39.8,90.2L39.8,90.2z M53,91.8
			L51,91.3c-0.8-0.2-1.5-0.4-2.2-0.5c-3-0.7-5.7-1.5-8.8-0.7c1.4-0.7,2.9-1,4.5-0.8c1.5,0.2,3.1,0.5,4.6,1l9.1,2.7
			C56.4,92.6,54.7,92.2,53,91.8z M63.2,93.3c-1.2,0-2.4,0-3.6-0.2l-10.6-3c-1.5-0.5-3-0.8-4.6-1c-1.5-0.2-3.1,0.1-4.5,0.8l0.1-0.1
			l0,0c0.1-0.2,0.2-0.4,0.3-0.6l0,0c3.2-1.6,7.2-2,12.2-1.3c1.7,0.2,3.4,0.5,5,0.8c2.4,0.5,4.9,0.9,7.4,1.1c3.1,0.2,7.4,0,10.9-2.1
			C72.5,91,68,93,63.2,93.3z M57,85c1.8,0.3,3.7,0.8,5.4,1.3c1.5,0.4,3.1,0.9,4.7,1.2c3.7,0.7,6.9,0.5,9.4-0.6v0
			c-3.6,2.4-8.2,2.7-11.5,2.5c-2.5-0.2-5-0.6-7.4-1.1c-1.6-0.3-3.3-0.6-5-0.8c-5-0.7-9-0.2-12.2,1.3c0.2-0.4,0.4-0.8,0.6-1.1
			C46,85.2,51.6,84.3,57,85z M72,81.7c-2.7-0.1-5.4-0.4-8.1-0.9c-2.3-0.3-4.6-0.7-7-0.8l-1-0.1c-2.6-0.3-5.3-0.2-7.9,0.1
			c3.2-1.3,7.1-1.5,12.2-0.8c1.3,0.2,2.7,0.4,4,0.7c3.1,0.7,6.3,1.1,9.5,1.2c3.4,0,6.7-0.7,9.8-2.1C80.6,80.9,76.6,81.9,72,81.7z
			 M65.2,74c3.6,0.4,7.1,1.1,10.6,1.8c3.1,0.6,6.4,1.3,9.6,1.7c-2.7,1.5-6.2,2-10.5,1.3c-1.8-0.3-3.6-0.7-5.3-1.1
			c-1.7-0.4-3.7-0.9-5.6-1.2c-6.7-0.8-13.6,0.5-19.5,3.8c0-0.1,0.1-0.2,0.1-0.3l0,0c0.2-0.5,0.4-1,0.5-1.3
			C51.5,73.5,60.4,73.5,65.2,74L65.2,74z M66.7,70.6c-1.7-0.4-3.5-1-5.3-1.3c-1-0.2-1.9-0.4-2.8-0.6c-3.6-0.9-6.7-1.6-10.1,0.1
			c0-0.1,0-0.1,0.1-0.2c0,0,0,0,0.1,0c1.5-1.5,3.6-2.3,5.7-2.1c2.1,0.2,4.2,0.6,6.1,1.4l2.8,1c3.3,1.1,6.5,2.2,10.3,3.3
			C71.1,71.8,68.9,71.2,66.7,70.6L66.7,70.6z M76,72.5l-1-0.1c-4.5-1.2-8-2.4-11.8-3.7l-2.8-1c-2-0.8-4.1-1.3-6.2-1.4
			c-2-0.2-4.1,0.5-5.6,1.9l0,0v-0.1c0-0.1,0-0.2,0.1-0.2l0,0c3.2-2.1,6.9-3.1,10.7-3c3.9,0.2,7.7,0.9,11.4,2l0.8,0.2
			c3.5,1,7,1.7,10.6,2.1c3.9,0.3,7.8-0.2,11.5-1.4C88.4,71.3,82.2,73,76,72.5L76,72.5z M63.3,61.7c4.6,0.2,9.1,1.6,13.5,3.1l2,0.6
			c4.6,1.5,9.6,2.8,14.3,2.4c-3.5,1.1-7.3,1.6-11,1.3c-3.6-0.4-7.1-1.1-10.6-2.1l-0.8-0.2c-3.7-1.1-7.6-1.8-11.5-2
			c-3.7-0.2-7.4,0.8-10.5,2.8C52,63.2,58.4,61.4,63.3,61.7z M66.8,57.7c-6.7-0.7-12.2,0.4-16.3,3.1l0.2-0.9
			c5.1-4.5,11.9-6.8,18.7-6.2c2.5,0.3,4.9,0.8,7.3,1.6c1.5,0.4,3,0.8,4.5,1.1c6.1,1.2,12.4,1,18.4-0.8l0.3,0.1
			c-2.6,1.5-5.5,2.5-8.4,3.1c-5.5,1.1-11.3,0.7-17,0h-0.1C71.9,58.4,69.3,58,66.8,57.7z M84.1,60.2c-2.1-0.1-4.2-0.3-6.3-0.7
			c4.5,0.5,9.1,0.4,13.6-0.4c2.9-0.6,5.7-1.6,8.3-3.1C95.1,59.9,88.7,60.4,84.1,60.2z M64.9,50.9c5.2-0.6,10.5,0.3,15.6,1.3
			l18.7,3.4c-5.8,1.7-12,1.9-17.9,0.7c-1.5-0.3-3-0.7-4.5-1.1c-2.4-0.7-4.9-1.2-7.4-1.6c-3.4-0.3-6.9,0.1-10.2,1.2
			c-3.1,1-6,2.7-8.5,4.8l0.1-0.4C53.3,55.1,59.4,51.6,64.9,50.9z M57.2,18.8c1,5.8,0.9,11.8-0.3,17.5c-1,5.2-3,10.4-5.1,15.3
			L51.7,52l1.8-18.7c0.6-5.1,0.8-10.2,0.5-15.3c-0.3-4.8-1.7-9.5-4.2-13.6c0-0.1-0.1-0.3-0.1-0.4C53.6,8.1,56.2,13.2,57.2,18.8z
			 M50,5c2.3,4,3.6,8.4,3.8,13c0.3,5.1,0.1,10.2-0.5,15.3l-1.8,18.5c-1.6-7.5-1.1-15.5-0.7-23.2S51.6,12.7,50,5z M34.3,35.4
			c0.9,1,1.7,2,2.6,3c5.1,5.9,10.4,12,13.7,19.2l-0.3,1.4l0,0c0,0.1,0,0.2-0.1,0.4c-2.1-4.8-5.7-8.8-8.8-11.8c-1-1-2.1-2-3.2-3
			c-2.6-2.3-5-4.8-7.3-7.4c-5.3-6.4-8.7-14.3-9.7-22.6C23.9,22.4,29,29.2,34.3,35.4z M41.5,49.9c-1.3-1.2-2.7-2.5-4.1-3.6
			c-2.5-2.1-4.9-4.4-7.1-6.8c-6.4-7.4-9.8-16.9-9.4-26.7l0.2,0.8c0.4,4.2,1.4,8.3,3,12.2c1.7,4.2,4,8,6.9,11.5
			c2.3,2.6,4.7,5.1,7.3,7.4c1,1,2.1,2,3.2,3c3,2.9,6.7,6.9,8.7,11.7c0,0.1,0.1,0.1,0.1,0.1l0,0c-0.1,0.6-0.2,1.1-0.3,1.7l0,0
			C48.4,56.6,44.9,53.1,41.5,49.9z M19.3,39c1.6,1,3.3,1.9,5,2.8c1.5,0.8,3,1.6,4.5,2.5c9.1,5.5,18.4,14.4,19.4,22.5
			C45.5,59.4,40,53.2,33,49.6c-1.5-0.8-3.2-1.4-4.8-2c-2.2-0.8-4.4-1.8-6.5-3c-4.3-2.6-7.6-6.7-9.3-11.5
			C14.3,35.5,16.6,37.5,19.3,39z M42.4,59.5c-3.1-2.9-7-4.8-11.1-6.6l-0.6-0.2c-3.7-1.7-7.5-3.4-10.6-5.9c-4.4-3.6-7.3-8.7-8.2-14.3
			l0.2,0.3c0.2,0.6,0.4,1.1,0.6,1.7c1.8,4.4,4.9,8.1,9,10.5c2.1,1.2,4.3,2.2,6.5,3c1.6,0.6,3.2,1.2,4.7,2
			c7.3,3.7,12.8,10.1,15.4,17.9c0,0,0,0.1,0,0.1c-0.1,0.4-0.3,0.9-0.4,1.4c0,0.1,0,0.2-0.1,0.3C47.6,66.2,45.7,62.5,42.4,59.5z
			 M18.9,52.4c1.5,0.7,3.1,1.4,4.6,2s2.9,1.2,4.3,1.8c3.7,1.7,7.2,4.1,10,7.1c-2.5-2.1-5.2-3.9-8.2-5.4c-1.3-0.6-2.6-1.2-3.8-1.7
			s-2.6-1.1-3.8-1.7c-2-0.9-3.9-2-5.6-3.4C17.1,51.6,18,52,18.9,52.4z M15.4,50.4c1.8,1.9,4.2,3.1,6.6,4.3c1.2,0.6,2.5,1.2,3.8,1.7
			c1.3,0.5,2.6,1.1,3.8,1.7c3.5,1.7,6.6,3.9,9.5,6.5c2.9,3.6,5,7.8,6.3,12.2l-0.2,0.5c-0.8-5.5-6-9.9-8.2-11.5
			c-2.4-1.7-5-3.3-7.6-4.6c-1.7-1-3.4-1.9-5.1-2.9c-4.6-2.9-8.7-6.5-12.1-10.8c0-0.2-0.1-0.4-0.1-0.6C12.9,48.3,14,49.4,15.4,50.4z
			 M35.3,66.6c-2.4-1.5-4.9-2.8-7.4-4c-2.4-1.1-4.7-2.4-7-3.8c-2.9-1.8-7.5-5.5-8.8-10.8c3.3,4.1,7.3,7.7,11.8,10.5
			c1.7,1,3.4,2,5.1,2.9c2.7,1.4,5.2,2.9,7.6,4.6c2.3,1.7,7.5,6.2,8.2,11.7c-0.1,0.2-0.2,0.5-0.3,0.7l0,0l-0.2,0.5
			C43.7,72.8,37.9,68.3,35.3,66.6L35.3,66.6z M44.3,80.6L44.3,80.6c6-3.4,12.8-4.7,19.6-3.9c1.9,0.3,3.8,0.7,5.6,1.2
			c1.8,0.4,3.5,0.9,5.4,1.1c4.2,0.6,7.8,0.2,10.5-1.3c-0.2,0.2-0.5,0.4-0.8,0.6c-3.4,1.7-7,2.5-10.8,2.6c-3.2-0.1-6.3-0.5-9.4-1.1
			c-1.3-0.2-2.6-0.5-4-0.7c-5.7-0.9-9.9-0.5-13.3,1.2c-1.2,0.3-2.3,0.9-3.4,1.6C43.9,81.5,44.1,81,44.3,80.6L44.3,80.6z M24,64.8
			l2.5,1.6c3.3,1.9,6.4,4.2,9.2,6.8c3.1,3.1,6,8.6,5.4,13.5l-0.3,0.6l0,0.1c0,0.1-0.1,0.2-0.1,0.3c-0.5-4.9-2.8-9.4-6.3-12.8
			c-2.1-1.8-4.3-3.4-6.6-4.8c-1.9-1.1-3.8-2.4-5.6-3.8c-2.9-2.4-5.2-5.4-6.7-8.8C17.9,60.4,20.8,62.8,24,64.8z M18.5,66.5
			c-2.6-3.1-4.1-6.9-4.4-10.9c0.2,0.4,0.5,0.8,0.8,1.2c1.5,3.8,4,7.1,7.1,9.7c1.8,1.4,3.6,2.7,5.6,3.9c2.4,1.4,4.6,3,6.6,4.8
			c3.6,3.4,5.8,8.1,6.2,13c-0.1,0.1-0.1,0.2-0.2,0.4c-0.8-4.5-3.2-8.5-6.8-11.4c-1.7-1.3-3.6-2.5-5.6-3.5l-4.6-2.6
			C21.6,69.6,20,68.1,18.5,66.5z M32.5,77.9c-1.9-1.7-4-3.3-6.1-4.8l-1.7-1.2l3.1,1.7c1.9,1,3.8,2.2,5.5,3.5
			c3.5,2.9,5.9,6.9,6.7,11.3c0,0,0,0.1,0.1,0.1c0,0,0,0,0,0l0,0l-0.3,0.5C38.6,84.4,36,81.2,32.5,77.9z M47.9,101.7
			c-1.9-1.1-4-1.8-6.2-2.2c-2.7-0.3-5.5-0.5-7.9,1.2l0.6-0.9l0,0c0.2-0.4,0.4-0.7,0.7-1.1h0.1c3.6-1.6,7.6-1.8,11.3-0.6
			c1.5,0.5,2.9,1.2,4.3,2c1.1,0.6,2.2,1.1,3.3,1.6c5.5,2.2,11.6,1.9,16.9-0.8l0.3-0.1c-2.7,2.2-5.9,3.6-9.3,4
			c-2.1,0.3-4.1,0.2-6.2-0.1c-1.7-0.5-3.4-1.1-5-1.8C49.7,102.5,48.8,102.1,47.9,101.7z M11.7,70.8L11.7,70.8c0,0-0.1-0.1-0.1-0.1
			c-1.4-3.6-1.9-7.4-1.6-11.2c0.2,1.5,0.7,2.9,1.2,4.3c1.4,3.3,3.4,6.4,5.8,9c1.8,2.1,3.8,4,5.7,5.9c1.7,1.7,3.5,3.4,5.2,5.3
			c4.2,4.6,6.6,8.9,7.5,13.3c-0.4,0.6-0.7,1.2-1.1,1.8c-1-4-3-7.6-5.7-10.7c-2.1-2.2-4.3-4.2-6.7-6c-0.9-0.7-1.8-1.4-2.7-2.2
			C16.6,78,13.3,74.8,11.7,70.8z M60.1,105.4c-0.9,0-1.7-0.1-2.6-0.3c1.4,0.1,2.9,0.1,4.3-0.1c3.6-0.5,7-2,9.8-4.4h0.1
			C68.8,103.8,64.5,105.6,60.1,105.4z M36,97.3c3.1-1.8,6.9-2.1,11.9-0.9c2.3,0.6,4.6,1.3,6.8,2.1c1.7,0.6,3.5,1.2,5.2,1.7
			c3.3,1,6.7,1.3,10.1,0.8c-5,2.4-10.8,2.5-16,0.5c-1.1-0.5-2.2-1-3.3-1.6c-1.4-0.8-2.8-1.4-4.3-2c-3.7-1.2-7.7-1.1-11.3,0.5
			l0.7-1.1C35.9,97.3,36,97.3,36,97.3z M18.9,71.3c1.4,1.2,2.8,2.4,4.2,3.5c2.7,2.1,5.3,4.4,7.7,6.9c3.8,4.2,5.7,9.1,5.5,13.9
			l-0.8,1.3c-1-4.3-3.4-8.6-7.5-13.2c-1.6-1.8-3.4-3.6-5.2-5.3c-1.9-1.9-3.9-3.8-5.7-5.9c-3.7-4.3-6-8.4-6.9-12.4
			C11.8,64,14.6,67.6,18.9,71.3z M29.2,91c-1.8-1.9-3.8-3.8-5.8-5.5c-3.6-3.3-7.3-6.6-9.8-10.7c-0.2-0.4-0.4-0.8-0.6-1.1
			c1.7,2.6,3.8,4.9,6.3,6.8c0.9,0.7,1.8,1.5,2.7,2.2c2.4,1.8,4.6,3.8,6.7,5.9c1.9,2.1,3.4,4.6,4.5,7.3C32,94.1,30.7,92.4,29.2,91z
			 M35.8,116.5c3,0.5,5.9,1.3,8.7,2.4c1.2,0.4,2.4,0.8,3.6,1.2c3.1,1,7.6,2.1,12,1h0c-3.6,1.2-7.9,1.3-13.2,0.4
			c-2-0.4-4.1-0.9-6.1-1.4c-2.4-0.6-4.9-1.2-7.4-1.6c-5.2-0.8-9.6-0.5-13.1,1l0.5-0.7C25.6,116.6,30.7,115.7,35.8,116.5L35.8,116.5z
			 M52.9,116.5c-3.6-0.3-7.1-1.1-10.5-2.2c-1.2-0.4-2.5-0.8-3.8-1.1c-0.7-0.2-1.3-0.4-2-0.5c-3.6-1-6.3-1.7-10.3-0.7l0.5-0.7
			c5.3-1,10.8,0.6,16,2.2l1.7,0.6c3.3,1.2,6.6,2,10.1,2.5C54,116.5,53.4,116.5,52.9,116.5L52.9,116.5z M56.1,116.4
			c-4-0.1-7.6-1.3-11.6-2.6l-1.7-0.5c-5.2-1.6-10.6-3.1-15.9-2.3l0.2-0.3l0,0l0.4-0.5c4.6-1.4,9.4-1.8,14.2-1.2
			c2.5,0.4,4.9,0.9,7.3,1.6c2.3,0.6,4.7,1.2,7.1,1.5c3.9,0.6,9.4,0.7,13.7-2.2C66,113.6,61.2,115.9,56.1,116.4L56.1,116.4z
			 M41.7,105.5c3.3,0.5,6.6,1.3,9.9,2.3c1.5,0.4,3,1,4.6,1.3c5.6,1.4,10,1.6,13.7,0.4c-4.2,3-9.8,3-13.8,2.4c-2.4-0.4-4.8-1-7.1-1.5
			c-2.4-0.7-4.9-1.2-7.4-1.6c-4.7-0.6-9.5-0.2-14,1.1l0.6-0.9C31.3,106.1,35.8,104.9,41.7,105.5z M7.3,73.2c0.1,0.2,0.2,0.5,0.3,0.7
			c0.1,0.2,0.2,0.6,0.3,0.9c1.2,3,3,5.7,5.3,8c1.5,1.5,3.1,2.9,4.8,4.1c1,0.7,1.9,1.5,2.9,2.3c1.9,1.5,3.6,3.4,4.8,5.5
			c0.3,0.5,0.5,1,0.7,1.6c0.1,0.3,0.2,0.5,0.3,0.8c0,0,0,0.1,0.1,0.1c1.3,3.3,2,6.8,2.1,10.3c-0.3,0.4-0.6,0.9-0.9,1.3l0,0l0,0
			l-0.2,0.3c-0.5-5-1.5-8.6-3.3-11.6c-1.9-3-4.3-5.7-7.1-7.9l-0.6-0.4C14.3,87,12,84.6,10.1,82c-2-2.6-3-5.8-2.9-9.1
			C7.2,73,7.3,73.1,7.3,73.2L7.3,73.2z M13.8,81.7c1,0.9,2,1.8,3,2.6c2.1,1.8,4.1,3.7,6,5.7c0.6,0.7,1.2,1.5,1.7,2.3
			c-1-1.2-2.1-2.3-3.4-3.3c-1-0.8-1.9-1.6-2.9-2.3c-1.7-1.3-3.3-2.6-4.8-4.1c-2-2-3.6-4.4-4.8-7C10,78,11.8,80,13.8,81.7z
			 M19.3,95.8c-1.3-1.5-2.7-3-4.1-4.4c-0.8-0.9-1.7-1.7-2.5-2.6c-2.2-2.3-4-5-5.3-7.9c-1.2-2.7-1.3-5.8-0.4-8.7
			c0,0.1,0.1,0.2,0.1,0.2c-0.2,2.1,0.1,4.2,1,6.2c0.5,1.2,1.1,2.4,1.9,3.5c2,2.6,4.3,5,6.8,7.1l0.6,0.5c2.7,2.2,5.1,4.9,6.9,7.9
			c1.8,3,2.8,6.7,3.3,11.8l-0.5,0.7C25.8,105.2,23.5,100.9,19.3,95.8z M10.6,91.3c1,1.2,2,2.5,2.9,3.7c2.2,2.6,4.2,5.3,6,8.2
			c2.7,4.8,3.5,9.9,2.1,14.1c-0.2,0.3-0.5,0.6-0.7,1c1.1-3.3,0.8-6.8-0.8-9.9c-1.6-3.1-3.7-5.9-6.1-8.4l-0.6-0.7
			c-2.2-2.2-4.2-4.7-5.8-7.4c-2.3-3.9-3.3-8.4-3-12.9V79C5.4,84,8.4,88.4,10.6,91.3z M3.1,88.7c-0.8-3.4-0.3-7,1.4-10.1
			c0,0.1,0,0.3,0,0.4C3,83.2,2.9,87.7,4.3,92C3.8,90.9,3.4,89.8,3.1,88.7z M17.5,108.1c-1.8-2.6-3.8-5-6.1-7.2c-0.6-0.7-1.3-1.3-2-2
			c-1.7-1.7-3.2-3.6-4.4-5.7c-1.7-4.3-2-9-0.6-13.4C4.2,83,4.8,86.2,6,89.2c0.4,1,0.9,1.9,1.4,2.9c1.7,2.7,3.7,5.1,5.9,7.4l0.6,0.7
			c2.4,2.5,4.5,5.3,6.1,8.3c1.6,3.1,1.8,6.7,0.6,10c0,0,0,0.1,0,0.1l-0.6,0.8C21,115.5,19.4,111.1,17.5,108.1z M50.7,125
			c-3.8,0.3-7.5-0.1-11.2-1c-1.6-0.4-3.2-0.9-4.8-1.5c-1.7-0.7-3.4-1.2-5.1-1.6l-0.4-0.1c-3.3-0.7-6.5-1.4-9.6-0.3l0.5-0.6
			c3.6-1.6,8.1-2,13.4-1.2c2.5,0.4,4.9,1,7.3,1.6c2,0.5,4,1,6.1,1.4c5.1,1,9.3,0.9,12.8-0.2C57.1,123.5,54,124.8,50.7,125z"/>
	</g>
</g>
</svg>
