<?xml version="1.0" encoding="utf-8"?>
<!-- Generator: Adobe Illustrator 22.1.0, SVG Export Plug-In . SVG Version: 6.00 Build 0)  -->
<svg version="1.1" id="Layer_1" xmlns="http://www.w3.org/2000/svg" x="0px" y="0px" viewBox="0 0 84 119.6" style="enable-background:new 0 0 84 119.6;" xml:space="preserve">
<style type="text/css">
	.st0{fill:#FFFFFF;}
</style>
<title>Asset 7Beauty_1</title>
<g id="Layer_2_1_">
	<g id="_16">
		<path class="st0" d="M5.4,112.9c3.1,4.1,8.1,5.9,14.7,5.2c5.4-0.7,10.6-2.4,15.5-4.9C54.9,103,69.9,86,77.6,65.5
			c3.5-9.4,5.3-19.3,5.4-29.3c0.1-0.1,0.1-0.2,0-0.2l0,0c0.2-11.7-2-23.2-6.3-34.1c0-0.1-0.1-0.1-0.2-0.2V1.6c0-0.1,0-0.2-0.1-0.2
			c0,0,0,0,0,0h-0.1c-0.1,0-0.1,0.1-0.1,0.1c0,0.1,0,0.1,0,0.2l0,0L53.6,19.2C38.9,30.6,23.7,42.3,13.1,58.1
			c-4.4,6.5-7.7,13.7-9.8,21.2C1.9,84.7-2.2,102.9,5.4,112.9z M35.2,112.6c-1.8,0.9-3.6,1.8-5.5,2.5c-8,3-17,3.9-22.4-1.1
			c0.3-1.2,0.6-2.4,1-3.7c2.5,0.9,5.1,1.5,7.8,1.8c7,0.9,14.1,0.7,21-0.5C36.5,111.9,35.8,112.2,35.2,112.6z M15.4,95.1
			c6.3,2.8,13.1,4.5,20,5c6.5,0.5,13.1,0,19.4-1.6c-5,4.8-10.6,8.9-16.6,12.4c-7.2,1.4-14.7,1.6-22,0.7c-2.6-0.3-5.2-0.9-7.7-1.8
			C10.2,104.7,12.5,99.7,15.4,95.1z M15.9,55.4c3.8-5.2,8.1-10,12.7-14.5c-3.8,11.1-3.4,23.2,1.2,33.9c0,0.1,0.1,0.1,0.2,0.1
			c0,0,0,0,0,0c0.1,0,0.1-0.1,0.1-0.2c-4.7-10.9-5-23.2-1-34.4c2.8-2.7,5.7-5.3,8.7-7.8c-1.8,9.5,0.1,19.2,5.2,27.4
			c0,0.1,0.2,0.1,0.2,0.1c0,0,0,0,0,0c0.1-0.1,0.1-0.2,0.1-0.3c-5.1-8.1-6.9-17.7-5.1-27.1c0-0.1,0-0.2-0.1-0.2l0,0
			c2.9-2.5,6-4.9,9-7.3c-0.9,8.1,1,16.3,5.3,23.2c0,0.1,0.1,0.1,0.2,0.1c-1.8,2.4-3.6,4.8-5.4,7.1c-3.7,4.6-7.8,9.1-11.7,13.4
			s-8.1,8.9-11.8,13.6c-2.2,2.7-4.1,5.3-5.9,7.9C14.1,79.2,13.4,67.1,15.9,55.4L15.9,55.4z M55.7,18.4l6.6-5.1
			c0,4.6,1.2,9.2,3.6,13.1c0,0,0.1,0.1,0.1,0.1c-2,3.9-4.1,7.7-6.4,11.4c-3.5-5.8-4.8-12.7-3.8-19.4C55.8,18.5,55.8,18.5,55.7,18.4z
			 M69.5,7.7c-0.6,2.9-0.2,5.8,1.1,8.4c0,0,0.1,0.1,0.1,0.1c-1.4,3.4-3,6.7-4.6,10c-2.3-4-3.5-8.5-3.5-13.1L69.5,7.7z M69.6,20
			c3.9-0.2,7.6-1.4,10.8-3.6c0.6,2.9,1.1,5.8,1.4,8.7l0,0C77,28.5,71,29.9,65.2,29.2C66.7,26.2,68.3,23.1,69.6,20
			C69.7,20,69.7,20,69.6,20L69.6,20z M64.8,29.5L64.8,29.5c6,0.8,12-0.7,16.9-4.1c0.4,3.6,0.5,7.2,0.5,10.8c-7,5.6-16,7.7-24.7,5.8
			C60.2,38,62.6,33.8,64.8,29.5L64.8,29.5z M57.3,42.4L57.3,42.4c8.8,1.9,17.9-0.2,24.9-5.7c-0.1,4.3-0.5,8.6-1.2,12.9
			c-10,4.3-21,5.6-31.7,3.9C52.2,49.9,54.8,46.2,57.3,42.4z M78.1,61.9c0,0-0.1,0-0.1,0c-11.9,6.6-25.9,8-38.9,3.8l0,0
			c2.9-3.2,5.9-6.6,8.6-10c0.5-0.6,1-1.3,1.5-2c0,0,0.1,0.1,0.1,0.1C60,55.6,71,54.3,81,50C80.3,54,79.3,58,78.1,61.9z M24.1,82.8
			c0.8-1,1.7-2.1,2.6-3.1c0,0,0.1,0.1,0.1,0.1c14,5.2,29.4,5.1,43.3-0.4c-4.1,6.9-9.1,13.1-14.8,18.7c-13.2,3.4-27.2,2.2-39.7-3.3
			C18.2,90.6,21,86.6,24.1,82.8z M76.9,65.2c-1.8,4.7-3.9,9.3-6.5,13.7c-13.9,5.6-29.4,5.8-43.5,0.5c2.9-3.5,6-6.9,9-10.2l2.9-3.2
			c0,0,0.1,0.1,0.1,0.1c13,4.2,27.1,2.8,39-3.7C77.6,63.3,77.3,64.3,76.9,65.2L76.9,65.2z M80.3,16L80.3,16
			c-3.1,2.2-6.8,3.4-10.6,3.6c2.5-5.6,4.7-11.2,6.6-17C78,7,79.4,11.4,80.3,16L80.3,16z M71,15.8c-1.3-2.6-1.6-5.6-1-8.5l5.8-4.5
			C74.4,7.3,72.8,11.6,71,15.8L71,15.8z M54,19.7l1.4-1.1c-1,6.8,0.4,13.6,3.9,19.5c0,0,0.1,0.1,0.1,0.1c-2.1,3.4-4.3,6.7-6.5,9.9
			c-3.4,4.8,0-0.1,0-0.1c-4.4-7-6.2-15.2-5.2-23.4C49.8,23.1,51.9,21.4,54,19.7L54,19.7z M13.7,58.5c0.5-0.8,1.1-1.6,1.7-2.4
			c-2.4,11.5-1.7,23.5,2.2,34.7l0,0c-0.9,1.3-1.7,2.6-2.5,3.9l-0.1,0.1c0,0,0,0.1,0,0.1c-2.2,3.5-4,7.2-5.6,11
			C5.4,97,3.8,87.3,4.7,77.7c0-0.1,0-0.2-0.1-0.2C6.7,70.7,9.8,64.4,13.7,58.5z M4.1,79.6c0.1-0.3,0.1-0.5,0.2-0.8
			c-0.7,9.5,1,19,5,27.6c-0.5,1.2-0.9,2.3-1.2,3.5l0,0c0,0-0.1,0.1-0.1,0.1c0,0.1,0,0.1,0,0.2c-0.4,1.2-0.7,2.4-1,3.5
			c-0.3-0.4-0.7-0.8-1-1.2C-1.4,102.7,2.6,84.8,4.1,79.6z"/>
	</g>
</g>
</svg>
