<?xml version="1.0" encoding="utf-8"?>
<!-- Generator: Adobe Illustrator 22.1.0, SVG Export Plug-In . SVG Version: 6.00 Build 0)  -->
<svg version="1.1" id="Layer_1" xmlns="http://www.w3.org/2000/svg" x="0px" y="0px" viewBox="0 0 162.1 20.1" style="enable-background:new 0 0 162.1 20.1;" xml:space="preserve">
<style type="text/css">
	.st0{fill:#FFFFFF;}
</style>
<title>Asset 8Beauty_1</title>
<g id="Layer_2_1_">
	<g id="_9">
		<path class="st0" d="M66.2,3.4C66,5.2,65.6,7,65.1,8.7c0,0-1-4.9-2.4-6C62.9,4.3,63,6,63,7.6c-6-6.1-17.3-7-25.4-6.4
			C27.3,1.9,17.9,7.7,12.9,12.2c-2,1.9-3.6,4.2-4.9,6.6c0,0,7.8-10.9,27.8-11.2c5.4-0.1,10.7,1.2,16,2.4c2.3,0.5,15.5,4.3,15.5,4.3
			S69.7,7.7,66.2,3.4z"/>
		<path class="st0" d="M95.9,3.6c0.2,1.8,0.6,3.6,1.2,5.3c0,0,1-4.9,2.3-6c-0.2,1.6-0.3,3.3-0.3,4.9c6-6.1,17.3-7,25.4-6.4
			c10.2,0.8,19.6,6.6,24.7,11.1c2,1.9,3.6,4.2,4.9,6.6c0,0.1-7.8-10.9-27.8-11.2c-5.4-0.1-10.7,1.2-16,2.4
			c-2.3,0.5-15.5,4.3-15.5,4.3S92.4,7.9,95.9,3.6z"/>
	</g>
</g>
</svg>
