<svg xmlns="http://www.w3.org/2000/svg" viewBox="0 0 150.57 98.24"><defs><style>.cls-1{fill:#fff;}.cls-2{fill:none;stroke:#53bec9;stroke-miterlimit:10;}.cls-3{fill:#6fa37a;}</style></defs><title>Paper_15</title><g id="Layer_2" data-name="Layer 2"><g id="_15_1" data-name="15_1"><path class="cls-1" d="M143.21,7.91l-.72,4.69a2.61,2.61,0,1,1-3.5,2.45,2.62,2.62,0,0,1,1.46-2.34V7.91h-12l-.72,4.69a2.61,2.61,0,1,1-3.5,2.45,2.62,2.62,0,0,1,1.46-2.34V7.91h-12L113,12.6a2.61,2.61,0,1,1-3.5,2.45A2.62,2.62,0,0,1,111,12.71V7.91H99l-.72,4.69a2.61,2.61,0,1,1-2,.11V7.91h-12l-.72,4.69a2.6,2.6,0,1,1-2.05.11V7.91h-12L68.8,12.6a2.61,2.61,0,1,1-2,.11V7.91h-12l-.72,4.69a2.61,2.61,0,1,1-3.5,2.45A2.62,2.62,0,0,1,52,12.71V7.91H40l-.72,4.69a2.61,2.61,0,1,1-3.5,2.45,2.62,2.62,0,0,1,1.46-2.34V7.91h-12l-.73,4.69a2.61,2.61,0,1,1-3.5,2.45,2.62,2.62,0,0,1,1.46-2.34V7.91h-12L9.85,12.6a2.6,2.6,0,1,1-2,.11V7.91H0V97.22l1,.59,1.58-.92,1.61-.68,1.71.31,1.86,1.72L9.2,96,11.08,98l1.58-1,1.55-1.15,1.61-.7,1.72.42,1.62-.49L21,96.71l1.62-.55,1.71.32,1.5-1.62,1.79,1.07L29,93.27l1.84,1.61,1.68.09,1.62-.58,1.6-.69,1.81,1.24,1.64-.25,1.47-2,1.69.14,1.73.54,1.55-1.3,1.7.27,1.75.74,1.66-.15L52.35,92l1.74.6,1.59-.8,1.7.25L59,91.23l1.68.12L62.19,90,64,91.31l1.48-1.86,1.8,1.19,1.74.62,1.51-1.54,1.75.76,1.69.11,1.47-2,1.81,1.29,1.64-.34,1.48-1.8,1.72.46,1.69.14,1.71.36,1.78,1,1.56-1,1.64-.33,1.79,1.17,1.43-2.46,1.58-.88,1.72.5,1.63-.42,1.88,2,1.65-.2,1.63-.39,1.63-.45,1.65-.2,1.52-1.46,1.75.8,1.75.74,1.52-1.55,1.79,1.18L117,86l1.71.39,1.51-1.57L122,85.93l1.41-2.55,1.81,1.37,1.58-.91,1.61-.64,1.72.45,1.75.76,1.5-1.69,1.71.29,1.78,1.09,1.63-.4,1.57-1.08,1.65-.17,1.7.28,1.52-1.49,1.83,1.43,1.53-1.35,1.73.58.54.36V7.91Z"/><line class="cls-2" x1="6.95" y1="30.26" x2="145.27" y2="30.26"/><line class="cls-2" x1="6.95" y1="42.71" x2="145.27" y2="42.71"/><line class="cls-2" x1="6.95" y1="55.16" x2="145.27" y2="55.16"/><line class="cls-2" x1="6.95" y1="67.62" x2="145.27" y2="67.62"/><path class="cls-3" d="M143.26,0a5.47,5.47,0,0,0-5.46,5.46v.7H139v-.7a4.23,4.23,0,1,1,8.46,0V23a2.21,2.21,0,0,1-2.21,2.21h-.54A2.21,2.21,0,0,1,142.53,23V7.91a.61.61,0,1,0-1.22,0V23a3.44,3.44,0,0,0,3.43,3.43h.54A3.44,3.44,0,0,0,148.72,23V5.46A5.47,5.47,0,0,0,143.26,0Z"/></g></g></svg>