<svg xmlns="http://www.w3.org/2000/svg" xmlns:xlink="http://www.w3.org/1999/xlink" viewBox="0 0 160.84 105.17"><defs><style>.cls-1{isolation:isolate;}.cls-2{fill:#f9f9f9;}.cls-10,.cls-12,.cls-14,.cls-15,.cls-16,.cls-17,.cls-18,.cls-3,.cls-4,.cls-6,.cls-8{mix-blend-mode:multiply;}.cls-3{fill:url(#linear-gradient);}.cls-4{fill:url(#linear-gradient-2);}.cls-5{fill:#e6e6e6;}.cls-10,.cls-11,.cls-6{fill:#f0f0f0;}.cls-12,.cls-14,.cls-15,.cls-16,.cls-17,.cls-18,.cls-6,.cls-8{opacity:0.8;}.cls-19,.cls-7{fill:#fff;}.cls-13,.cls-20,.cls-7{opacity:0.3;mix-blend-mode:screen;}.cls-8{fill:url(#linear-gradient-3);}.cls-9{fill:url(#linear-gradient-4);}.cls-12{fill:url(#linear-gradient-5);}.cls-13{fill:url(#linear-gradient-6);}.cls-14{fill:url(#linear-gradient-7);}.cls-15{fill:url(#linear-gradient-8);}.cls-16{fill:url(#linear-gradient-9);}.cls-17{fill:url(#linear-gradient-10);}.cls-18{fill:url(#linear-gradient-11);}.cls-20{fill:url(#linear-gradient-12);}</style><linearGradient id="linear-gradient" x1="129.56" y1="-12.22" x2="143.17" y2="-12.22" gradientTransform="matrix(0.99, -0.14, 0.12, 0.89, -46.09, 83.64)" gradientUnits="userSpaceOnUse"><stop offset="0" stop-color="#f0f0f0"/><stop offset="0.33" stop-color="#fbfbfb"/><stop offset="0.68" stop-color="#fff"/></linearGradient><linearGradient id="linear-gradient-2" x1="130.1" y1="-23.03" x2="129.73" y2="-9.07" gradientTransform="matrix(0.99, -0.14, 0.12, 0.89, -46.09, 83.64)" gradientUnits="userSpaceOnUse"><stop offset="0.51" stop-color="#fff"/><stop offset="0.77" stop-color="#fbfbfb"/><stop offset="1" stop-color="#f0f0f0"/></linearGradient><linearGradient id="linear-gradient-3" x1="-196.31" y1="188.48" x2="-196.31" y2="179.55" gradientTransform="matrix(0.72, 0.7, -0.7, 0.72, 291.82, 18.48)" gradientUnits="userSpaceOnUse"><stop offset="0.35" stop-color="#fff"/><stop offset="1" stop-color="#f0f0f0"/></linearGradient><linearGradient id="linear-gradient-4" x1="-187.96" y1="169.11" x2="-187.86" y2="200.55" gradientTransform="matrix(0.72, 0.7, -0.7, 0.72, 291.82, 18.48)" gradientUnits="userSpaceOnUse"><stop offset="0" stop-color="#f0f0f0"/><stop offset="1" stop-color="#fff"/></linearGradient><linearGradient id="linear-gradient-5" x1="555.91" y1="619.2" x2="564.52" y2="608.91" gradientTransform="translate(212.3 902.39) rotate(-141.5)" gradientUnits="userSpaceOnUse"><stop offset="0" stop-color="#f0f0f0"/><stop offset="0.65" stop-color="#fff"/></linearGradient><linearGradient id="linear-gradient-6" x1="561.35" y1="614.06" x2="556.96" y2="617.35" gradientTransform="translate(212.3 902.39) rotate(-141.5)" gradientUnits="userSpaceOnUse"><stop offset="0.22" stop-color="#f0be92"/><stop offset="0.27" stop-color="#e5b58b"/><stop offset="0.35" stop-color="#c79e79"/><stop offset="0.45" stop-color="#97785c"/><stop offset="0.57" stop-color="#554334"/><stop offset="0.71" stop-color="#010101"/><stop offset="0.71"/></linearGradient><linearGradient id="linear-gradient-7" x1="567.08" y1="593.83" x2="563.54" y2="594.47" xlink:href="#linear-gradient-5"/><linearGradient id="linear-gradient-8" x1="567.3" y1="582.78" x2="564.85" y2="582.95" xlink:href="#linear-gradient-5"/><linearGradient id="linear-gradient-9" x1="561.3" y1="604.04" x2="558.06" y2="604.26" gradientTransform="translate(212.3 902.39) rotate(-141.5)" gradientUnits="userSpaceOnUse"><stop offset="0" stop-color="#fff"/><stop offset="0.08" stop-color="#fcfcfc"/><stop offset="0.46" stop-color="#f3f3f3"/><stop offset="1" stop-color="#f0f0f0"/></linearGradient><linearGradient id="linear-gradient-10" x1="560.79" y1="594.3" x2="558.15" y2="594.48" xlink:href="#linear-gradient-9"/><linearGradient id="linear-gradient-11" x1="567.7" y1="613.24" x2="561.87" y2="613.64" xlink:href="#linear-gradient-5"/><linearGradient id="linear-gradient-12" x1="557.76" y1="597.51" x2="554.21" y2="594.34" xlink:href="#linear-gradient-6"/></defs><title>Paper_11</title><g class="cls-1"><g id="Layer_2" data-name="Layer 2"><g id="_11" data-name="11"><path class="cls-2" d="M25.43,101.22c-2.27-8.09-8.33-76.94-8.33-76.94s56.09-6.63,66.11-9.14,52.54-7.26,52.54-7.26,5.81,37.82,5.47,39.55,5.64,39,5.64,39Z"/><path class="cls-3" d="M75.43,16.59C77.2,25,86.17,79.29,86.18,93.8l13.44-1.64h0L86.29,14.49c-1.21.23-2.26.45-3.08.65C81.63,15.54,78.9,16,75.43,16.59Z"/><path class="cls-4" d="M20,55.43c.31,3.22.64,6.52,1,9.8,17.13-2.88,87.9-13.62,120.26-17.11a3.18,3.18,0,0,1,0-.69c.11-.57-.44-5-1.22-10.67Z"/><path class="cls-5" d="M35.56,0C34.44,1.87,23.77,9.64,23,10.4s0,1.22-6.22,7.71A102.07,102.07,0,0,0,7.33,29.17a32.37,32.37,0,0,0-1.71,5.17L0,40.13S2,47,2.46,48.35s-.28.66.32,3.25,1.47,2,1.47,2,9-8.58,9.81-10.1,3.69-3.52,4.26-4.07,6.52-8.1,10.79-13.57S48.45,8.45,48.45,8.45L46.51,6.57S39.85,3.43,38.6,2.22A16.84,16.84,0,0,0,35.56,0Z"/><path class="cls-6" d="M6.46,31.39h0c-.45,1.42-.84,3-.84,3l-.22.24C9,43.37,7.79,48.85,7.79,48.85,9.57,44.06,6.46,31.39,6.46,31.39Z"/><path class="cls-7" d="M10,32.9a2.89,2.89,0,0,0,.91.9,7,7,0,0,0,1.1.61l.07,0,.06.1a21.84,21.84,0,0,1,1.41,3,12.52,12.52,0,0,1,.5,1.61,4.47,4.47,0,0,1,.15,1.71,10,10,0,0,0-.61-1.52l-.7-1.49c-.46-1-.91-2-1.34-3l.14.13a4.79,4.79,0,0,1-1.07-.87A2.27,2.27,0,0,1,10,32.9Z"/><path class="cls-8" d="M25.32,8.58c-1.21.93-2.09,1.62-2.29,1.82a6.15,6.15,0,0,0-.72,1.16c-.09,1.29-.36,5-.43,6S24.44,11.14,25.32,8.58Z"/><path class="cls-9" d="M37.83,8.5A72.49,72.49,0,0,1,34,15.11c-.67,1.08-1.38,2.14-2.07,3.2-.17.26-.36.54-.51.78a1.7,1.7,0,0,1-.45.45l-.41.28c-.53.37-1.07.71-1.61,1.05-2.16,1.33-4.37,2.59-6.48,4a6,6,0,0,0-.73.54l-.12.12s0,0,0,0a1.21,1.21,0,0,0-.05.14c-.08.16-.16.3-.24.44-.33.56-.68,1.09-1,1.62-.74,1-1.48,2.08-2.27,3.08.65-1.09,1.33-2.17,2-3.27.32-.54.64-1.09.93-1.64.07-.14.14-.28.19-.41l0-.08a.46.46,0,0,1,.07-.18,1.8,1.8,0,0,1,.2-.24,7.46,7.46,0,0,1,.77-.64c2.08-1.51,4.28-2.78,6.43-4.13l1.59-1,.38-.26.24-.2c.18-.3.36-.55.54-.82l2.19-3.13c.73-1,1.45-2.08,2.16-3.14S37.13,9.56,37.83,8.5Z"/><path class="cls-7" d="M9.08,39.84,6.75,32.65A62.93,62.93,0,0,1,8.34,45Z"/><path class="cls-10" d="M38.53,7.42c.27,0,4.4.39,4.62.32s3.36-1.17,3.36-1.17S39.85,3.43,38.6,2.22a16.84,16.84,0,0,0-3-2.22l-.65,5.66S38.26,7.43,38.53,7.42Z"/><path class="cls-11" d="M29.11,25.91c.16-.21.35-.44.55-.67h0l-4.24,4.11s-4,3.76-4.19,4.57a2.39,2.39,0,0,1-.58.87L25.9,30Z"/><path class="cls-11" d="M20.65,34.79l-2.28,2.08A22.64,22.64,0,0,0,20.65,34.79Z"/><path class="cls-7" d="M32,18.31c-.17.26-.36.54-.51.78a1.7,1.7,0,0,1-.45.45l-.41.28c-.53.37-1.07.71-1.61,1.05C27.2,22,25.4,23,23.65,24.1L32.2,19l4.24-7.92c-.77,1.35-1.59,2.69-2.42,4C33.35,16.19,32.64,17.25,32,18.31Z"/><path class="cls-11" d="M23,21.84q-1.77,1.43-3.63,2.73l.07-.09c-.27.69-.51,1.39-.79,2.08l0,0,0,0-1.08,1.09a6.81,6.81,0,0,0-.86,1.2,30.06,30.06,0,0,1-1.6,2.59c.5-.88.87-1.82,1.36-2.72a5.58,5.58,0,0,1,.87-1.3l1.05-1.11,0,.07c.25-.7.55-1.39.82-2.08l0-.05.05,0C20.44,23.43,21.72,22.62,23,21.84Z"/><path class="cls-7" d="M33,5.33c-.64.76-1.41,1-1.47,1.51A12.92,12.92,0,0,1,30.19,9.2a16.8,16.8,0,0,0-1.32,1.92A7.52,7.52,0,0,1,28,12.49s1.8-2.17,2.31-2.85A8.26,8.26,0,0,0,31.47,8c.35-.69-.07-.64.61-1.5C32.47,6,33,5.33,33,5.33Z"/><path class="cls-5" d="M151.51,64.69c1.85,1,3.55-1.17,5,.18a6.86,6.86,0,0,1,.85.46l.71.57.53.42.52.42,1.2,1c1.17.92.13,9.22-.59,10.12-2,2.47-4,4.91-6.06,7.36-.25.3-.5.61-.76.91-1.4,1.67-3.11,3.81-4.56,5.46l-.75.91c-2.5,3.06-4.92,6.17-7.14,9.35l-.66.84-2,2.51-.63-.5c-2-4.1-6-5.59-10-8l-.65-.52,4.65-5.84.44-.56c3.53-3.94,6.72-7.91,9.84-11.91.22-.29.44-.57.67-.85,4.61-5,4.89-7.69,9-11.79Z"/><path class="cls-12" d="M156.07,82.38c.59-.73,3.08-3.82,3.65-4.55.72-.9,1.76-9.2.59-10.12l-1.2-1-.52-.42-.53-.42-.71-.57a6.86,6.86,0,0,0-.85-.46c-1.44-1.35-3.14.79-5-.18l-.42.52c-1.94,1.92-2.71,4.31-3.6,6.45Z"/><path class="cls-5" d="M160.31,67.71l-.79-.64c2.34,2.44-3.79,6.29-3.79,6.29,3,1.06,4,4.47,4,4.47C160.44,76.93,161.48,68.63,160.31,67.71Z"/><path class="cls-13" d="M160.31,67.71l-.79-.64c2.34,2.44-3.79,6.29-3.79,6.29,3,1.06,4,4.47,4,4.47C160.44,76.93,161.48,68.63,160.31,67.71Z"/><path class="cls-14" d="M133.65,96.13c1.58-2.19,1.58-.77,3.24-6.31s4.69-8.95,5.7-9.6,5.26-4.43,5.26-4.43-4.37,4.86-5.58,7A38,38,0,0,0,139,89.51C138.39,91.6,133.65,96.13,133.65,96.13Z"/><path class="cls-15" d="M129.88,98.24c.72-1.32,1.74-3.18,1.92-3.59.3-.64,3.54-6.34,2.65-5.22l-3.22,4c-.37.46-1.15,2.7-2.52,4.11Z"/><path class="cls-16" d="M146.5,87.16c2.21-1.69,1.39-4.18,2.5-5.45s3.24-6.08,4.58-7.16l-2.7,5.3A6.29,6.29,0,0,0,149.2,83a7,7,0,0,1-1.06,3Z"/><path class="cls-17" d="M142.57,92.91s-.28-2.52.62-3.1,1.76-2.48,2.05-2.57a16.63,16.63,0,0,0,1.93-1.88,11.38,11.38,0,0,0-2.53,2c-.5.76-2,2.48-2.25,2.82S142.57,92.91,142.57,92.91Z"/><path class="cls-18" d="M151.32,68.22c-.42,1.75-1.59,5.58-4.13,7.87,0,0,3.8-3.59,4.59-4.57s1-2.11,1.91-3.61c.65-1.1,2.8-2,3.89-2.39l-.23-.19a6.86,6.86,0,0,0-.85-.46,2,2,0,0,0-2.21-.27C153.54,65.41,151.66,66.84,151.32,68.22Z"/><path class="cls-19" d="M136.72,96.58a8.1,8.1,0,0,0,1.09-2c.08-.36.12-.77.24-1.15a9.35,9.35,0,0,1,.4-1.12,20.72,20.72,0,0,1,1.05-2.11,11.44,11.44,0,0,1,1.36-2c1.08-1.18,2.4-2,3.21-3.37.42-.64.77-1.35,1.17-2A5.43,5.43,0,0,1,146.78,81a5.65,5.65,0,0,0-1.38,1.86c-.36.68-.68,1.4-1.09,2.08-.78,1.42-2.17,2.34-3.17,3.48a17.13,17.13,0,0,0-2.43,3.93,10.94,10.94,0,0,0-.44,1.07c-.13.36-.17.74-.29,1.13a4.11,4.11,0,0,1-.55,1.06C137.21,96,137,96.27,136.72,96.58Z"/><path class="cls-7" d="M137.28,98.9c-.26.39-.52.8-.78,1.17s-.57.73-.87,1.08-.37.42-.56.62c.2.2.39.41.58.62.19-.25.39-.51.57-.77s.56-.78.81-1.2.46-.84.69-1.26l2.67-5Z"/><path class="cls-20" d="M146.71,90.9l2.39-.22c1.26-1.49,2.63-3.19,3.8-4.58l-4,3s-2.54.75-2.69,1.13-2.74,3.43-2.74,3.43Z"/></g></g></g></svg>