<svg xmlns="http://www.w3.org/2000/svg" xmlns:xlink="http://www.w3.org/1999/xlink" viewBox="0 0 55.92 130.79"><defs><style>.cls-1{isolation:isolate;}.cls-2{fill:#95959f;}.cls-3{fill:#7b7b84;}.cls-4{fill:#e4dde5;}.cls-5{fill:url(#linear-gradient);}.cls-6{fill:url(#radial-gradient);}.cls-7{fill:#fff;opacity:0.8;}.cls-8{fill:url(#linear-gradient-2);}.cls-9{fill:#121f82;opacity:0.5;mix-blend-mode:overlay;}.cls-10{fill:url(#linear-gradient-3);}.cls-11{fill:url(#radial-gradient-2);}.cls-12{opacity:0.15;}.cls-13{fill:#828282;}</style><linearGradient id="linear-gradient" x1="-130.01" y1="66.85" x2="-90.1" y2="66.85" gradientTransform="matrix(0, 1, -1, 0, 94.96, 154.67)" gradientUnits="userSpaceOnUse"><stop offset="0" stop-color="#2098de"/><stop offset="0.01" stop-color="#1f90da"/><stop offset="0.03" stop-color="#1d75cb"/><stop offset="0.05" stop-color="#1c5fbf"/><stop offset="0.08" stop-color="#1b4eb6"/><stop offset="0.11" stop-color="#1a43b0"/><stop offset="0.16" stop-color="#193cac"/><stop offset="0.29" stop-color="#193aab"/><stop offset="0.45" stop-color="#1838a7"/><stop offset="0.6" stop-color="#17329c"/><stop offset="0.75" stop-color="#14288a"/><stop offset="0.89" stop-color="#101a6f"/><stop offset="0.99" stop-color="#0c0d57"/></linearGradient><radialGradient id="radial-gradient" cx="-771.9" cy="-2055.64" r="161.28" gradientTransform="translate(7.54 410.31) rotate(22.64) scale(0.17)" gradientUnits="userSpaceOnUse"><stop offset="0.01" stop-color="#fff"/><stop offset="0.45" stop-color="#5c89e8"/><stop offset="0.55" stop-color="#5a85e5"/><stop offset="0.64" stop-color="#537ada"/><stop offset="0.73" stop-color="#4867c9"/><stop offset="0.82" stop-color="#394db1"/><stop offset="0.91" stop-color="#252b93"/><stop offset="1" stop-color="#0c026d"/><stop offset="1" stop-color="#0b006b"/></radialGradient><linearGradient id="linear-gradient-2" x1="-124.23" y1="48.62" x2="-97.4" y2="48.62" gradientTransform="translate(155.67 25.15) rotate(22.66)" gradientUnits="userSpaceOnUse"><stop offset="0" stop-color="#2098de"/><stop offset="0" stop-color="#2097de"/><stop offset="0.12" stop-color="#0f7eca"/><stop offset="0.23" stop-color="#056ebe"/><stop offset="0.32" stop-color="#0269ba"/><stop offset="0.44" stop-color="#0364b5"/><stop offset="0.58" stop-color="#0457a6"/><stop offset="0.74" stop-color="#06408e"/><stop offset="0.91" stop-color="#0a206c"/><stop offset="0.99" stop-color="#0c0d57"/></linearGradient><linearGradient id="linear-gradient-3" x1="-124.36" y1="30.66" x2="-95.89" y2="30.66" gradientTransform="translate(155.67 25.15) rotate(22.66)" xlink:href="#linear-gradient"/><radialGradient id="radial-gradient-2" cx="-1343.57" cy="-4148.65" r="193.51" gradientTransform="translate(1.25 442.45) rotate(22.65) scale(0.1)" xlink:href="#radial-gradient"/></defs><title>Paper_9</title><g class="cls-1"><g id="Layer_2" data-name="Layer 2"><g id="_9_1_copy" data-name="9_1 copy"><path class="cls-2" d="M13.14,83.48l17.8-40.19-4.33-1.8L10.2,83.71s-.09.32,1.39.32S13.14,83.48,13.14,83.48Z"/><path class="cls-3" d="M30.53,43.12l-.87-.36L12,84a3.41,3.41,0,0,0,.69-.11Z"/><path class="cls-4" d="M26.7,43.56,10.59,83.92c.18.16.82.1.87.11l.1-.2,16.31-39.2C27.47,44.28,27.07,43.92,26.7,43.56Z"/><ellipse class="cls-5" cx="28.11" cy="44.35" rx="13.98" ry="20.23" transform="translate(-23.64 53.2) rotate(-67.34)"/><path class="cls-6" d="M46.74,50.46c-2.7,6.48-13,8.36-22.93,4.2S8,41.87,10.66,35.4s13-8.36,22.94-4.2S49.45,44,46.74,50.46Z"/><path class="cls-7" d="M25,54.5C14.9,50.3,9.09,41.32,12,34.43a9.7,9.7,0,0,1,2-3,9,9,0,0,0-3.27,3.93C8,41.87,13.84,50.5,23.81,54.66c5.7,2.38,11.5,2.78,15.93,1.47A24.68,24.68,0,0,1,25,54.5Z"/><path class="cls-8" d="M33,6.62C27.32,19.3,20.12,31.73,19.8,32.51c-1.7,4.05,2,9.44,8.22,12.05S40.68,46,42.37,41.93c.33-.77,4.11-14.63,9.16-27.56Z"/><path class="cls-9" d="M34.6,45.94h.66l.41,0h.09l.43,0h0a8.31,8.31,0,0,0,5.08-2.27c1.43-4.77,4.61-15.39,8.42-25.86v0c-2.7,1.08-6.5.94-10.23-.61-4-1.69-6.94-4.6-7.88-7.5l-.84,1.78c.77,3.27,3.81,6.57,8.15,8.38a17.51,17.51,0,0,0,4,1.18c-3,8-6.29,17-8.63,23.55a16.71,16.71,0,0,1-7.75-1.32,18.06,18.06,0,0,1-4.7-2.87A16.79,16.79,0,0,0,28,44.56a17.81,17.81,0,0,0,5.78,1.36h.8Z"/><path class="cls-10" d="M55.37,16.51c-2.12,5.09-9.8,6.72-17.16,3.65S26.62,10.48,28.74,5.4s9.8-6.71,17.16-3.64S57.49,11.43,55.37,16.51Z"/><path class="cls-11" d="M55.35,15.32c-1.93,4.62-9.26,6-16.36,3S27.68,9.19,29.61,4.57s9.25-6,16.36-3S57.28,10.7,55.35,15.32Z"/><path class="cls-7" d="M39.81,18.2c-7.17-3-11.32-9.4-9.27-14.32a6.65,6.65,0,0,1,1.4-2.11,6.32,6.32,0,0,0-2.33,2.8C27.68,9.19,31.88,15.34,39,18.31a17.5,17.5,0,0,0,11.36,1.05A17.63,17.63,0,0,1,39.81,18.2Z"/><g class="cls-12"><path class="cls-13" d="M2.52,125.94c.86,2.23,3.42,4.18,6.52,4.71s5.54-.4,6.69-2.12h0l.08-.13a1.09,1.09,0,0,0,.08-.15,4.35,4.35,0,0,0,.75-2.25,6,6,0,0,0-1.88-4.39c.39-4.11.89-7.85,1.21-10.13a6.67,6.67,0,0,0,3.55-2.91,6.13,6.13,0,0,0,1-3.14c.19-4.21-3.68-8.37-8.84-9.68l.83-12.45a6,6,0,0,0-1.28-.44,1.16,1.16,0,0,0-.39.08h0l-.06,0a1.33,1.33,0,0,0-.33.13c-.09,0-.18.08-.17.1h0c-.19.16-.14.29-.14.29L9.7,95.39C4.45,94.87.2,97.64,0,101.88a7.28,7.28,0,0,0,.72,3.44A9.6,9.6,0,0,0,4,109.41c.11,2.35.26,6.2.28,10.38A4.5,4.5,0,0,0,2,123.47,5.13,5.13,0,0,0,2.52,125.94Z"/></g></g></g></g></svg>