<svg xmlns="http://www.w3.org/2000/svg" viewBox="0 0 71.8 135.76"><defs><style>.cls-1{opacity:0.3;fill:url(#linear-gradient);}.cls-2{fill:#95959f;}.cls-3{fill:#e4dde5;}.cls-4{fill:#666670;}.cls-5{fill:url(#radial-gradient);}.cls-6{fill:#fff;opacity:0.2;}</style><linearGradient id="linear-gradient" x1="53.75" y1="134.29" x2="53.75" y2="145.94" gradientTransform="translate(130.86 35.06) rotate(78.85)" gradientUnits="userSpaceOnUse"><stop offset="0" stop-color="#a9a3a9"/><stop offset="1" stop-color="#f1f0f1"/></linearGradient><radialGradient id="radial-gradient" cx="-186.65" cy="122.88" r="38.1" gradientTransform="translate(186.31 135.93) rotate(79.65) scale(0.76)" gradientUnits="userSpaceOnUse"><stop offset="0" stop-color="#d7f2b1"/><stop offset="0.03" stop-color="#d3f2a7"/><stop offset="0.12" stop-color="#c6f288"/><stop offset="0.21" stop-color="#bff276"/><stop offset="0.26" stop-color="#bcf26f"/><stop offset="0.53" stop-color="#86c426"/><stop offset="0.69" stop-color="#6aac00"/><stop offset="1" stop-color="#3d6300"/></radialGradient></defs><title>Paper_7</title><g id="Layer_2" data-name="Layer 2"><g id="_7_1" data-name="7_1"><path class="cls-1" d="M10.91,133.32C8.07,137.58,3,136,1.2,130.67c-2.76-8.27,0-13.24.88-15,.33-.65,2.65-3.53,5.14-3.81l.65-19.21c0-.27.12-.13.25.32s1.1.35,1.1.63l-1,17.66c.57,2.19,1.82,2.8,2.65,5.3C12.67,121.84,12.67,130.67,10.91,133.32Z"/><path class="cls-2" d="M48.69,21.84,7.18,95.54a1.11,1.11,0,0,0,.41,1.52,1.13,1.13,0,0,0,1.52-.41l43.07-72.8Z"/><path class="cls-3" d="M47.54,25.32,7.1,96.46a1.07,1.07,0,0,0,.49.6h0L48.15,26.84C47.93,26.34,47.72,25.84,47.54,25.32Z"/><path class="cls-4" d="M49.33,28.68l2.85-4.83-3.49-2L47,24.91A18.18,18.18,0,0,0,49.33,28.68Z"/><circle class="cls-5" cx="55.96" cy="15.84" r="15.84" transform="translate(7.66 48.24) rotate(-49.66)"/><path class="cls-6" d="M61,24.7A18.06,18.06,0,0,1,41.73,8.13a14.39,14.39,0,0,0,0,2A16.73,16.73,0,0,0,59.59,25.63a16.53,16.53,0,0,0,8-2.68A17.91,17.91,0,0,1,61,24.7Z"/></g></g></svg>