<svg xmlns="http://www.w3.org/2000/svg" viewBox="0 0 124.46 137.94"><defs><style>.cls-1{isolation:isolate;}.cls-2{fill:#e6e6e6;}.cls-3,.cls-7,.cls-8{fill:#f0f0f0;}.cls-3,.cls-5{opacity:0.8;}.cls-3,.cls-5,.cls-7{mix-blend-mode:multiply;}.cls-4{fill:#fff;opacity:0.3;mix-blend-mode:screen;}.cls-5{fill:url(#linear-gradient);}.cls-6{fill:url(#linear-gradient-2);}</style><linearGradient id="linear-gradient" x1="339.16" y1="142.13" x2="339.16" y2="119.19" gradientTransform="matrix(0.72, 0.7, -0.7, 0.72, -93.75, -294.76)" gradientUnits="userSpaceOnUse"><stop offset="0.35" stop-color="#fff"/><stop offset="1" stop-color="#f0f0f0"/></linearGradient><linearGradient id="linear-gradient-2" x1="360.62" y1="92.37" x2="360.87" y2="173.13" gradientTransform="matrix(0.72, 0.7, -0.7, 0.72, -93.75, -294.76)" gradientUnits="userSpaceOnUse"><stop offset="0" stop-color="#f0f0f0"/><stop offset="1" stop-color="#fff"/></linearGradient></defs><title>Paper_19</title><g class="cls-1"><g id="Layer_2" data-name="Layer 2"><g id="_19" data-name="19"><path class="cls-2" d="M91.34,0C88.46,4.8,61.07,24.75,59.17,26.71s-.11,3.13-16,19.81S20.41,72.67,18.83,74.94s-4.39,13.28-4.39,13.28L0,103.09s5.16,17.74,6.33,21.12-.74,1.68.81,8.33,3.77,5.28,3.77,5.28,23.18-22,25.2-25.95,9.48-9.05,11-10.46S63.8,80.6,74.77,66.56s49.69-44.85,49.69-44.85l-5-4.84S102.37,8.81,99.16,5.69A43.69,43.69,0,0,0,91.34,0Z"/><path class="cls-3" d="M16.59,80.64h0c-1.15,3.65-2.15,7.58-2.15,7.58l-.58.6C23.19,111.41,20,125.48,20,125.48,24.59,113.19,16.59,80.64,16.59,80.64Z"/><path class="cls-4" d="M25.73,84.52a7.66,7.66,0,0,0,2.34,2.3,17.48,17.48,0,0,0,2.83,1.57l.19.08.15.26a55.23,55.23,0,0,1,3.62,7.75,34.22,34.22,0,0,1,1.28,4.14,11.81,11.81,0,0,1,.39,4.4A23.93,23.93,0,0,0,35,101.1l-1.8-3.82c-1.17-2.55-2.34-5.12-3.43-7.73l.34.34a12.76,12.76,0,0,1-2.74-2.25A5.83,5.83,0,0,1,25.73,84.52Z"/><path class="cls-5" d="M65,22c-3.1,2.4-5.37,4.16-5.87,4.67a15.41,15.41,0,0,0-1.86,3c-.24,3.31-.92,12.76-1.1,15.51S62.78,28.61,65,22Z"/><path class="cls-6" d="M97.18,21.82a183.52,183.52,0,0,1-9.79,17c-1.72,2.79-3.55,5.5-5.33,8.24-.43.67-.91,1.38-1.29,2a4.26,4.26,0,0,1-1.17,1.14l-1,.74c-1.37.94-2.76,1.81-4.14,2.68C68.86,57,63.18,60.27,57.77,63.79a17.46,17.46,0,0,0-1.87,1.39,1.77,1.77,0,0,0-.31.31c0,.06,0-.07-.05.09a2.32,2.32,0,0,1-.14.35,12.12,12.12,0,0,1-.6,1.14c-.85,1.44-1.75,2.8-2.68,4.16-1.9,2.68-3.8,5.34-5.82,7.92,1.66-2.81,3.4-5.58,5-8.4.82-1.4,1.66-2.81,2.39-4.22.18-.35.35-.72.48-1l.08-.21a1.66,1.66,0,0,1,.2-.47,4.16,4.16,0,0,1,.5-.6,22.31,22.31,0,0,1,2-1.64c5.35-3.9,11-7.16,16.51-10.62,1.38-.86,2.77-1.71,4.1-2.6l1-.67a6,6,0,0,0,.62-.51c.48-.77.92-1.41,1.4-2.1l5.61-8Q89,34,91.72,30C93.6,27.29,95.39,24.56,97.18,21.82Z"/><path class="cls-4" d="M23.33,102.35l-6-18.48c1.39,6.34,4.24,20.76,4.08,31.82Z"/><path class="cls-7" d="M99,19.05c.7,0,11.31,1,11.88.85s8.62-3,8.62-3S102.37,8.81,99.16,5.69A43.69,43.69,0,0,0,91.34,0L89.68,14.54S98.27,19.08,99,19.05Z"/><path class="cls-8" d="M74.77,66.56c.43-.55.91-1.12,1.41-1.71h0L65.29,75.4S55,85.06,54.53,87.14a6.25,6.25,0,0,1-1.47,2.22L66.53,77.09C69.35,73.49,72.19,69.87,74.77,66.56Z"/><path class="cls-8" d="M53.06,89.36l-5.88,5.35A61,61,0,0,0,53.06,89.36Z"/><path class="cls-4" d="M82.06,47c-.43.67-.91,1.38-1.29,2a4.26,4.26,0,0,1-1.17,1.14l-1,.74c-1.37.94-2.76,1.81-4.14,2.68-4.55,2.81-9.17,5.5-13.67,8.3l22-13L93.61,28.51c-2,3.48-4.08,6.9-6.22,10.29C85.67,41.59,83.84,44.3,82.06,47Z"/><path class="cls-8" d="M59.11,56.1q-4.56,3.65-9.32,7l.17-.23c-.68,1.78-1.31,3.58-2,5.35l0,.11-.07.06L45,71.2a17.54,17.54,0,0,0-2.22,3.08A75.79,75.79,0,0,1,38.7,81C40,78.67,41,76.27,42.21,74a14,14,0,0,1,2.23-3.35l2.71-2.85-.12.18c.66-1.8,1.41-3.56,2.1-5.34l.06-.13.12-.09Q54.11,59.1,59.11,56.1Z"/><path class="cls-4" d="M84.89,13.68c-1.66,2-3.64,2.67-3.79,3.9s-3.55,6-3.55,6a41.43,41.43,0,0,0-3.38,4.94,19,19,0,0,1-2.38,3.52s4.63-5.56,5.94-7.31,2-1.92,3.11-4.14c.9-1.78-.17-1.65,1.56-3.86C83.42,15.46,84.89,13.68,84.89,13.68Z"/></g></g></g></svg>