<svg fill="none" height="20" viewBox="0 0 28 20" width="28" xmlns="http://www.w3.org/2000/svg">
<circle cx="14" cy="10" fill="#333333" r="2.5" stroke="#333333" stroke-width="2.5"/>
<path clip-rule="evenodd" d="M6.71033 9.40472C6.43408 9.7543 6.43408 10.2457 6.71033 10.5953C8.46549 12.8164 11.1614 15.5758 14 15.5758C16.8386 15.5758 19.5345 12.8164 21.2897 10.5953C21.5659 10.2457 21.5659 9.7543 21.2897 9.40472C19.5345 7.18362 16.8386 4.42424 14 4.42424C11.1614 4.42424 8.46549 7.18362 6.71033 9.40472ZM6.25155 4.86954C8.19936 3.35346 10.8248 2 14 2C17.1752 2 19.8006 3.35346 21.7485 4.86954C23.6958 6.38528 25.0435 8.1221 25.6948 9.04423C26.1017 9.6205 26.1018 10.3795 25.6948 10.9558C25.0435 11.8779 23.6958 13.6147 21.7485 15.1305C19.8006 16.6465 17.1752 18 14 18C10.8248 18 8.19936 16.6465 6.25155 15.1305C4.30416 13.6147 2.9565 11.8779 2.30524 10.9558C1.89825 10.3795 1.89825 9.6205 2.30524 9.04423C2.9565 8.1221 4.30416 6.38528 6.25155 4.86954Z" fill="#333333" fill-rule="evenodd"/>
</svg>
