<svg width="15" height="16" viewBox="0 0 15 16" fill="none" xmlns="http://www.w3.org/2000/svg">
<path fill-rule="evenodd" clip-rule="evenodd" d="M9.45073 10.6642C9.20123 10.2277 9.32573 9.68107 9.65764 9.30342C10.862 7.9331 11.1218 5.89517 10.1591 4.22762C8.95101 2.13521 6.27546 1.4183 4.18305 2.62635C2.09064 3.8344 1.37373 6.50995 2.58178 8.60236C3.54318 10.2676 5.434 11.0616 7.22067 10.7075C7.71711 10.6091 8.25627 10.7784 8.50741 11.2178L9.55284 13.0468C9.70385 13.3084 10.0383 13.398 10.2998 13.247C10.5614 13.096 10.651 12.7616 10.5 12.5L9.45073 10.6642ZM9.2119 4.77446C10.1179 6.34377 9.58026 8.35043 8.01095 9.25647C6.44165 10.1625 4.43498 9.62482 3.52894 8.05552C2.6229 6.48621 3.16059 4.47955 4.72989 3.57351C6.2992 2.66747 8.30586 3.20515 9.2119 4.77446Z" fill="#828282"/>
</svg>
