<svg width="11" height="18" viewBox="0 0 11 18" fill="none" xmlns="http://www.w3.org/2000/svg">
<path d="M9.2191 4.61694C9.71056 4.81719 10.2483 4.45565 10.2483 3.92496L10.2483 2.73503C10.2483 2.06108 9.82599 1.4594 9.19217 1.2303L9.04156 1.17587C8.02317 0.807767 6.89904 0.868299 5.92606 1.34363L5.62777 1.48935C4.94114 1.8248 4.50567 2.5222 4.50568 3.28639L4.50575 11.6241C4.50575 11.9669 4.1643 12.2094 3.82231 12.1846C3.75583 12.1797 3.68866 12.1773 3.6209 12.1773C2.15501 12.1773 0.966675 13.3263 0.966675 14.7437C0.966675 16.1611 2.15501 17.3102 3.6209 17.3102C5.08678 17.3102 6.27512 16.1611 6.27512 14.7437L6.27509 14.7309L6.27524 14.7145V5.45402C6.27524 5.13048 6.46556 4.83722 6.76104 4.70544L6.8739 4.65511C7.61778 4.32338 8.46482 4.30959 9.2191 4.61694Z" fill="#BDBDBD"/>
</svg>
