<svg width="70" height="65" viewBox="0 0 70 65" fill="none" xmlns="http://www.w3.org/2000/svg">
<rect width="70" height="65" fill="#3B3B3B"/>
<circle cx="35" cy="32.5" r="21.5" fill="#303030" stroke="#292929" stroke-width="3"/>
<path d="M41 26.3452C41 26.3424 41 26.3396 41 26.3368V26.096C41 25.1597 40.1996 24.4235 39.2666 24.5015L32.3723 25.0782C31.336 25.1649 30.539 26.0313 30.539 27.0713L30.5391 34.8181C30.5391 35.161 30.1976 35.4034 29.8556 35.3786C29.7892 35.3738 29.722 35.3713 29.6542 35.3713C28.1883 35.3713 27 36.5204 27 37.9378C27 39.3552 28.1883 40.5042 29.6542 40.5042C31.1201 40.5042 32.3084 39.3552 32.3084 37.9378L32.3084 37.925L32.3086 37.9086V29.0205C32.3086 28.507 32.6975 28.077 33.2084 28.0255L39.2304 27.4194L39.2305 34.0033C39.2305 34.3462 38.889 34.5886 38.547 34.5638C38.4806 34.559 38.4134 34.5565 38.3456 34.5565C36.8797 34.5565 35.6914 35.7056 35.6914 37.123C35.6914 38.5404 36.8797 39.6894 38.3456 39.6894C39.8115 39.6894 40.9999 38.5404 40.9999 37.123L40.9998 37.1102L41 37.0938V26.3452Z" fill="#767676"/>
</svg>
