<svg xmlns="http://www.w3.org/2000/svg" xmlns:xlink="http://www.w3.org/1999/xlink" viewBox="0 0 87.16 128.32"><defs><style>.cls-1{fill:#fff;}.cls-2{fill:#0537a5;}.cls-3{fill:url(#linear-gradient);}.cls-4{fill:url(#linear-gradient-2);}.cls-5{fill:url(#linear-gradient-3);}.cls-6{fill:url(#linear-gradient-4);}.cls-7{fill:url(#linear-gradient-5);}</style><linearGradient id="linear-gradient" x1="1865.02" y1="-697.34" x2="1875.4" y2="-815.98" gradientTransform="matrix(-0.94, 0.34, 0.34, 0.94, 2059.25, 134.53)" gradientUnits="userSpaceOnUse"><stop offset="0" stop-color="#38c0ff" stop-opacity="0.2"/><stop offset="1" stop-color="#61aeff" stop-opacity="0.4"/></linearGradient><linearGradient id="linear-gradient-2" x1="1846.13" y1="-696.61" x2="1846.13" y2="-809.47" xlink:href="#linear-gradient"/><linearGradient id="linear-gradient-3" x1="1912.07" y1="-725.48" x2="1829.4" y2="-782.31" gradientTransform="matrix(-0.94, 0.34, 0.34, 0.94, 2059.25, 134.53)" gradientUnits="userSpaceOnUse"><stop offset="0" stop-color="#52dcff"/><stop offset="1" stop-color="#ffbcff"/></linearGradient><linearGradient id="linear-gradient-4" x1="957.38" y1="78.42" x2="970.1" y2="182.69" gradientTransform="matrix(-0.98, -0.18, -0.18, 0.98, 1016.18, 88.48)" gradientUnits="userSpaceOnUse"><stop offset="0" stop-color="#fff" stop-opacity="0"/><stop offset="1" stop-color="#fff" stop-opacity="0.4"/></linearGradient><linearGradient id="linear-gradient-5" x1="-7.18" y1="56.51" x2="3.42" y2="56.51" gradientTransform="translate(35.76 -48.61) rotate(5.65)" gradientUnits="userSpaceOnUse"><stop offset="0" stop-color="#501eff"/><stop offset="1" stop-color="#189dff"/></linearGradient></defs><title>Social_10</title><g id="Layer_2" data-name="Layer 2"><g id="_10" data-name="10"><path id="_Path_" data-name="&lt;Path&gt;" class="cls-1" d="M80.54,109.22a37.8,37.8,0,0,0,3.33-1.94,10,10,0,0,0,1.4-1.75S58.68,38.79,46.79,6.26C45.86,3.71,43.49,2,41.5,2.42,30.22,4.9,11.52,7.58,5.37,8.64,1.26,9.35-1,12.92.42,16.77Q20.19,70.85,40,125c1,2.84,3.22,3.68,5,3.28a13.47,13.47,0,0,0,3.2-1.32C59.72,120.89,68.93,115.14,80.54,109.22Z"/><path id="_Path_2" data-name="&lt;Path&gt;" class="cls-2" d="M85.17,107c1.81-.92,2.52-3.75,1.58-6.31L51.4,3.92C50.47,1.37,48.09-.36,46.1.06,33,2.91,18.65,5.87,5.51,8.62c-2,.41-2.77,3.06-1.73,5.91C17,50.67,30.07,87.17,43.29,123.34c1,2.85,3.35,4.4,5.15,3.47C60.33,120.64,73.25,113,85.17,107Z"/><path id="_Path_3" data-name="&lt;Path&gt;" class="cls-3" d="M45.8,1.05S38.29,2.64,27,5C21.39,6.14,14.82,7.51,7.77,9l-1.33.28-.08,0-.09,0-.16.05a2.33,2.33,0,0,0-.33.14,3,3,0,0,0-.3.19,3.2,3.2,0,0,0-.27.25,4,4,0,0,0-.75,3.35,6.43,6.43,0,0,0,.25,1c.11.36.23.66.35,1,.24.65.47,1.31.71,2,.48,1.3,1,2.62,1.44,3.94l5.82,16C17,47.87,20.88,58.58,24.56,68.62S31.7,88,34.65,96l9.9,26.73S40.67,112,34.87,96l-10-27.46c-3.66-10-7.56-20.74-11.46-31.44l-5.85-16L6.15,17.15,5.43,15.2a9.71,9.71,0,0,1-.56-1.88,3.54,3.54,0,0,1,.66-3,2.39,2.39,0,0,1,.23-.22L6,10a2.36,2.36,0,0,1,.28-.12l.17-.05.07,0,.08,0L8,9.47c7-1.53,13.57-3,19.18-4.2C38.34,2.75,45.8,1.05,45.8,1.05Z"/><path id="_Path_4" data-name="&lt;Path&gt;" class="cls-4" d="M84.91,106.25l.22-.13a2.93,2.93,0,0,0,.57-.49,3.53,3.53,0,0,0,.67-1.18,5,5,0,0,0,.24-2,5.41,5.41,0,0,0-.23-1.27c-.14-.43-.3-.85-.46-1.31-.33-.91-.68-1.89-1-3l-2.54-7L76,72.2c-2.35-6.44-4.58-12.54-7.08-19.41l-7.4-20.18L55,15c-1-2.57-1.84-4.93-2.61-7l-1.1-2.93c-.17-.45-.32-.88-.49-1.3a5.54,5.54,0,0,0-.64-1.12,5.26,5.26,0,0,0-1.5-1.41A3.56,3.56,0,0,0,47.38.76a2.87,2.87,0,0,0-.76,0l-.25,0,.25,0a3.1,3.1,0,0,1,.76,0,3.72,3.72,0,0,1,1.25.5A5.26,5.26,0,0,1,50.1,2.7a5.48,5.48,0,0,1,.6,1.1c.17.4.31.85.48,1.3.32.9.67,1.89,1,2.94l2.53,7,6.37,17.64c2.35,6.45,4.85,13.33,7.36,20.21s4.77,13,7.13,19.41l6.5,17.6c1,2.57,1.83,4.93,2.61,7l1.09,2.93c.17.45.34.88.48,1.3a5,5,0,0,1,.24,1.22,5,5,0,0,1-.21,2,3.64,3.64,0,0,1-.64,1.18,2.9,2.9,0,0,1-.56.51Z"/><path id="_Path_5" data-name="&lt;Path&gt;" class="cls-5" d="M6.92,10.51C10,9.86,14.47,8.84,17.53,8.18c.23,0,.51.17.63.49.18.51.37,1,.56,1.53.56,1.54,1.91,2.58,3,2.32L37.8,8.84c1.1-.26,1.56-1.65,1-3.12-.18-.49-.36-1-.53-1.46-.12-.31,0-.6.21-.65,3.06-.67,5.2-1.09,8.26-1.76,1.22-.27,2.69.8,3.27,2.38,11.91,32.6,23.55,64.43,35.47,97.05.57,1.58.13,3.33-1,3.9-11.94,6-24.28,13.22-36.19,19.33-1.11.57-2.54-.39-3.18-2.14C32,86.33,19,50.16,5.85,14.17,5.21,12.42,5.69,10.78,6.92,10.51Z"/><path id="_Path_6" data-name="&lt;Path&gt;" class="cls-6" d="M7,10.5c3-.65,7.5-1.66,10.54-2.32.23,0,.51.17.63.49.18.51.37,1,.56,1.53.56,1.54,1.91,2.58,3,2.32L37.8,8.84c1.1-.26,1.56-1.65,1-3.12-.18-.49-.36-1-.53-1.46-.12-.31,0-.6.21-.65,3.06-.67,5.2-1.09,8.26-1.76,1.22-.27,2.69.8,3.27,2.38L79.72,85.46Q44.16,50.18,7,10.5Z"/><path id="_Compound_Path_" data-name="&lt;Compound Path&gt;" class="cls-7" d="M24.56,8.27c-.08-.21,0-.4.14-.44l8.61-1.9a.42.42,0,0,1,.41.31c.08.21,0,.4-.14.43L25,8.59C24.82,8.62,24.64,8.48,24.56,8.27Zm-1.62.36c.08.21.26.35.41.32s.22-.23.14-.44-.26-.35-.41-.32S22.86,8.42,22.94,8.63Z"/></g></g></svg>