<svg xmlns="http://www.w3.org/2000/svg" viewBox="0 0 79 62.06"><defs><style>.cls-1{fill:#a436d2;}</style></defs><title>Social_13</title><g id="Layer_2" data-name="Layer 2"><g id="_13" data-name="13"><path class="cls-1" d="M67.6,0H11.41A11.42,11.42,0,0,0,0,11.41V50.66a11.42,11.42,0,0,0,11.41,11.4H67.6A11.41,11.41,0,0,0,79,50.66V11.41A11.42,11.42,0,0,0,67.6,0Zm0,5.45A5.94,5.94,0,0,1,69,5.61l-23.7,26.9a7.65,7.65,0,0,1-11.49,0L10.05,5.61a6.1,6.1,0,0,1,1.36-.16Zm6,45.21a6,6,0,0,1-6,6H11.41a6,6,0,0,1-6-6V11.41A5.88,5.88,0,0,1,5.9,9.15l23.77,27a13.11,13.11,0,0,0,19.67,0l23.77-27a6.07,6.07,0,0,1,.44,2.26Z"/></g></g></svg>